<svg width="720" height="640" viewBox="0 0 720 640" fill="black" xmlns="http://www.w3.org/2000/svg">
  <g xmlns="http://www.w3.org/2000/svg" fill="none" fill-rule="evenodd">
    <rect width="720" height="640"/>
  </g>
<g transform="translate(120, 80)"><path xmlns="http://www.w3.org/2000/svg" d="M393.13 244.9l.01.1-.01-.1zm-276-109.4l.01.1c-.01-.06-.01-.08-.01-.1z"/><path xmlns="http://www.w3.org/2000/svg" d="M258.55 48.7c-3.5-4.6-12.1-.9-12.1-.9s-1.3-2.5-5.7-2.7c-1.8 0-3.9.3-6.1.4s-4.4-.2-7.1 1.1c-5.5 2.6-4.8 7.6-4.8 7.6s-1.6-.1-3.2 1.1c-1.6 1.3-3.4 3.3-2.3 6.7.7 2 2.56 10.3 2.56 10.3s.5-.66 1.36-1.33l.1.54c-1 1.04-1.6 2.48-1.6 4.1 0 3.15 2.37 5.7 5.3 5.7.37 0 .72-.05 1.07-.13l-6.87 22.43-2.2 5.7s3.2 4.1 10.8 5.7c5.2 1.1 8.7 1.2 11 1 1.9-.2 4.2-.6 3-4.1-1.7-5.2-1.1-8.5-1.1-8.5l2.4-13.1c1.63.3 3.14.35 4.3-.01 3.2-1 5.9-4.4 6.9-10.1.5-3.3.8-9.2.8-13.4 0-1.1-.1-3.4-.3-5.4-.1-.64-.2-1.25-.32-1.84 4.3-1.87 7.3-6.74 4.1-10.87zm-30.2 31.3c.01.03.02.06.02.1l-.08-.05c.02-.01.04-.02.06-.04z" fill="#fff"/><path xmlns="http://www.w3.org/2000/svg" d="M232.3 77.83c-.17.05-.34.07-.5.07.01.01.15.05.5-.07zm-8.63-9.23h.02l.1-.03-.12.03zm-1.95 2.5l-.1-.47a8.73 8.73 0 0 0-.88.69l.14.65a5.25 5.25 0 0 1 .83-.87zm3.56 1.5c-1.6 0-2.9 1.35-2.9 3s1.3 3 2.9 3 2.9-1.35 2.9-3-1.3-3-2.9-3zm0 5c-1.05 0-1.9-.9-1.9-2s.85-2 1.9-2 1.9.9 1.9 2-.86 2-1.9 2zm18.08-10.68c.4 0 .8-.3.8-.9 0-1-.7-1.2-1.1-1.2-3.6-.3-5.2 2-5.3 2.1-.3.4-.27 1.2.3 1.66.44.36 1.13.17 1.4-.06.1-.1 1.2-1.8 3.9-1.6zm10.5-2.2c-1.42-.98-3.2-.44-3.3-.4-.42.17-.86.57-.57 1.38a1.01 1.01 0 0 0 .97.56c.1-.01 1.2-.18 2.1.2.46.2.9-.1 1.02-.33.38-.7.08-1.2-.22-1.4z"/><circle xmlns="http://www.w3.org/2000/svg" cx="242.41" cy="71.92" r="1.4"/><circle xmlns="http://www.w3.org/2000/svg" cx="252.42" cy="71.12" r="1.4"/><path xmlns="http://www.w3.org/2000/svg" d="M248.4 72.32c-.4.1-.6.5-.4.9.5 1.3 1.4 3.8 1.3 4.7s-.85 1-1.2 1.1c-.45.12-.75.45-.65.9.12.58.65.63.95.6.8-.1 2.2-.9 2.3-2.4.1-1.6-1.2-5-1.4-5.4-.1-.4-.5-.6-.9-.4zm-2.73 11c-3.6.14-4.63-2.75-4.7-2.9-.18-.4-.55-.54-.94-.4s-.55.55-.4.94c.54 1.46 2.38 4 6.2 3.84.4-.04.67-.36.62-.86-.04-.3-.38-.67-.77-.63zm-23.7-32h0l-.03-.16z"/><path xmlns="http://www.w3.org/2000/svg" d="M260.28 50.9c-.15-.7-.46-1.3-.65-1.63l.06-.1-.55-.8c-.2-.26-.45-.5-.67-.74l.5.56c-.2-.01-.4-.3-.73-.73-.38-.35-.9-.84-1.6-1.03-1.26-.58-2.65-.14-3.9-.24-.6.14.53-.22-.38-.1-.04-.14.43-.1.18-.2-.9.1-1.52-.03-2.6.27l-.07-.1c-.6.2-1.2.35-1.73.48l-.78.2-.33.1-.15.06a.94.94 0 0 0-.18.12c-.02.01-.04.03-.05 0l-.15-.2-.06-.1-.12-.18-.2-.3c-.16-.2-.4-.44-1.05-.72-.16-.16-.34-.3-.52-.44-.66-.3-.54-.06-1.27-.36.08-.1-.95-.3-.48-.3-.85-.26-1.82-.34-2.77-.24l-2.98.16c-.45.22-1.53.2-1.86.35-.07-.06-2.12.06-.94-.14.1-.02.28-.02.27.01l.14-.1c-1.17-.15-2.2.1-3.5.2.4 0 .9-.03.56.06l-1.2.1.24-.12c-.6.05-1.2.15-1.8.3l.27.04c-.87.2-1.27.1-2.12.7-.37.28.82-.23 0 .2l-.9.4-1 .6c-.65.47-1.32 1.03-1.8 1.67.2-.03-.1.28-.3.67l-.12.01c-.38.76-.44.9-.6 1-.12.1-.26.23-.46 1.06l.07.33c-.05.65-.1.88-.17 1.07-.03.1-.06.18-.08.3l-.01.1c0 .02.01.04.02.07l.1.17c-.02-.13.16-.03.2.2-.03 0-.08.01-.14 0 0-.03 0-.07-.01-.1-.07.01-.1.04-.15.06a.39.39 0 0 1-.13.02c.05-.04.05-.08.01-.1-.03-.01-.01-.03-.12-.01-.1.02-.24.04-.4.1.13-.1.27-.16.42-.24-.42.16-.8.35-1.18.58-.47.14-1.04.48-1.48.84l-.93.76s-.38.35-.73.83c-.36.47-.65 1.08-.66 1.34.07-.45-.42.66-.4.3-.04.3-.16.86-.18 1.44-.04.58 0 1.15-.02 1.5l-.03-.12c.03.6.18 1.18.34 1.65l.4 1.22c.26.8.5 1.6.65 2.54.1-.1.27.86.37.6.3.92.43 1.8.56 2.52.06.36.13.68.22.94l.18.47c.07.17.15.3.24.4.32 1.27.27 1.7.42 2.5l-.1-.3.13.53c.02.04.03.05.05.08a6.77 6.77 0 0 0-.23 1.7c0 3.42 2.6 6.2 5.8 6.2.12 0 .24-.02.36-.03l-6.63 21.65-2.3 5.96.17.22c.14.17 3.4 4.26 11.1 5.88 3.44.73 6.48 1.1 9.08 1.1a22.56 22.56 0 0 0 2.07-.09c1.28-.13 2.7-.37 3.4-1.45.5-.8.52-1.88.03-3.3-1.63-5-1.1-8.22-1.08-8.25l2.32-12.6c.68.1 1.35.18 1.96.18.76 0 1.46-.1 2.08-.28 3.63-1.14 6.27-4.96 7.25-10.5.52-3.45.8-9.52.8-13.47 0-1.18-.1-3.5-.3-5.47-.05-.37-.13-.72-.2-1.08 1.1-.53 2.32-1.35 3.25-2.35.95-1 1.54-2.15 1.74-2.93l-.01.1c.17-.9.4-1.12.43-2.15.02-.05.03-.13.04-.1-.05-.52-.1-1.25-.26-1.93zm-20.1 52.4c-.03.14-.6 3.5 1.12 8.75.38 1.1.4 1.93.07 2.45-.45.7-1.6.88-2.64 1-2.9.25-6.55-.08-10.85-1-6.34-1.33-9.56-4.47-10.33-5.3l2.1-5.45 6.78-22.16c.58-.16 1.13-.4 1.63-.75.08.3.16.6.22.88.53 2.22 2.42 4.1 5.96 5.93 2.5 1.3 5.52 2.5 8.25 3.06l-2.3 12.6zm13.6-23.2c-.9 5.15-3.3 8.7-6.56 9.7-3 .94-8.62-1.07-12.52-3.07-3.2-1.66-5-3.38-5.44-5.27a24.44 24.44 0 0 0-.35-1.35l-.24-1.26c-.88 1.16-2.2 1.92-3.7 1.92-2.65 0-4.8-2.33-4.8-5.2s2.15-5.27 4.8-5.2c1.97.05 2.87.33 4.1 1.63l.5.17a.7.7 0 0 1 .08.1 12.01 12.01 0 0 1 .11.49c.48.86.77 1.86.77 2.94a5.81 5.81 0 0 1-.2 1.52c.01.04.02.08.04.12a.85.85 0 0 0 .26.33c.17.12.32.18.48.24.18.01.36 0 .52-.03h.15c-.01-.04.53-.2.8-.42.16-.06.2-.01.3-.05.08-.05.35-.17.54-.8.18-.5.14-.92.16-1.43l-.01-1.48c-.05.47-.1.32-.12.1.03-.42.15-.66.12-1l.14-.04c-.14.16-.06-1.12-.1-1.27.12-.24.04.66.1.77l.08-1.28c.01-.1.01-.22.02-.4-.02-.22-.03-.38.03-.75.06-.8-.16.12-.2-.28.14-.73.36-1.48.84-2.24l-.24.2 1.37-3.15c.5-2.8.24-4.35.1-5.08-.04-.15-.07-.26-.1-.35l.55-.15c.2.25 1.65.92 5.3 1.9l-.1.02c2.2.44 3.6.6 5.16.5.23.27 1.85.1 2.38.15h-.05c1.36-.22 2.9-.02 4.2-.58-.05.03-.05.1-.36.2.46-.13.98-.32 1.42-.48.05.3.12.6.16.9.2 1.93.3 4.2.3 5.35.02 3.9-.26 9.9-.78 13.3z"/><path xmlns="http://www.w3.org/2000/svg" d="M91.82 319.36l35-9.4 5.8 27.4-42.3 11.2z" fill="#fff"/><path xmlns="http://www.w3.org/2000/svg" d="M110.42 315.4a1.93 1.93 0 0 0-.3-1.08c-.17-.27-.44-.54-.8-.76l-1.1-.6-2.82-1.48.14.01c-2.68-1.2-4.32-1.93-6.34-2.45-.2-.4-2.32-.8-2.97-1.06h.07c-1.8-.26-3.6-1.06-5.34-1.17.07-.01.12-.08.52-.02-1.25-.2-2.98-.4-3.04-.57-.3-.04-.9-.15-1.46-.04-.56.1-1.1.3-1.57.65s-.86.8-1.12 1.3c-.28.6-.33.92-.47 1.33l-1.1 4v-.14c-.17 1.1-.42 1.35-.7 2.54-.04.06-.08.14-.08.12-.2 1.2-1.06 3.3-1.28 4.25l-.12.02-.7 2.26.3-.83c.2.4-.74 1.64-1.1 3.34-.54 1.52-.4 3.3-1.07 4.84-.1.8 0-.74-.27.43-.16-.01.08-.56-.14-.3-.3 1.13-.75 1.77-1.1 3.18l-.14.02c-.37 1.86-1.26 3.32-1.45 4.58-.5 1.88-.76 1.12-1.15 3.12l-.4.7c-.3.8 0 .65-.37 1.54-.08-.1-.46 1.13-.38.56-.83 2-1.15 4.26-2.3 6.9 0 .65-.56 1.98-.56 2.47-.1.05-.9 2.73-.6 1.14.03-.14.1-.37.14-.34l-.06-.22c-.73 1.48-.8 2.85-1.34 4.37.2-.44.38-1.05.32-.62l-.48 1.42v-.33l-.75 2.1.22-.25c-.4 1.02-.73 1.32-.94 2.54-.08.56.5-.93.16.18l-1.96 5.16c.2-.12.03.35-.1.85l-.14.02-.16.7-.07.5c-.03.26-.07.38-.1.5-.03.13-.06.26-.04.52.03.26.1.67.43 1.24.14.13.27.26.42.36.4.45.7.68.9.85l.48.4c.15.1.3.22.6.32.47.16.66.1 1.15.16-.72-.14-.3-.36.6-.07l-.26.06c.5.1.7.1 1.02.23-.32-.02-.2.12.55.3h-.55l.75.1.88.08c.85.18 1.8-.16 2.44-.53l1.4-.83s.53-.4 1.06-.87 1.06-1.04 1.2-1.3c-.27.43.73-.5.55-.13.37-.55 1.6-1.95 2.22-2.36l-.1.1 5.25-4.9c-.18-.03.85-.85.48-.77 1.8-1.85 3.76-2.8 4.08-3.85.86-.8 1.14-.8 1.6-1.18l-.2.2 3.36-2.93c.58-.57.5-.85 1.66-1.75-.3.38.15-.01.57-.37-.26.24-.3.34.28-.07a2.25 2.25 0 0 1 .26-.31c.01 0 .04-.01.03.01.67-.6.53-.54.2-.28.01-.03-.03-.02-.15.04.8-.5 2-1.7 2.2-1.63l.73-.63c.06-.04.1-.12.16-.12l.28-.05.88-.13c.3-.05.54-.06.93-.17.7-.2 1.33-.77 1.57-1.43a2.43 2.43 0 0 0 .14-.49l.07-.4.15-.83c.15-.23.1.3 0 .96l.3-1.6c.13.04-.12.92-.2 1.42.62-1.83.64-3.92 1.32-6.08v-.48l.05-.13c-.06-.01-.02-.52.03-.85.18-.3.26.08.5-1 .3-.84.48-2.46.67-3.6-.15.6-.17.4-.16.12.12-.55.3-.83.34-1.27l.17-.02c-.2.18.16-1.46.14-1.68.18-.28-.1.87-.03 1.02l.7-3.28c.14-1.2-.2.18-.2-.4.2-1.04.3-2.07.66-3.23l-.22.34c.32-1.96.6-3.1 1-4.4l.42-3.2.83-3.8a2.78 2.78 0 0 0-.02-.81z"/><path xmlns="http://www.w3.org/2000/svg" d="M64.24 372.58c-.01-.02-.01-.03-.02-.04-.05-.05-.1-.1-.16-.14l.18.18z"/><g xmlns="http://www.w3.org/2000/svg" fill="#fff"><path d="M75.23 360.27c0 .01-.01.03-.01.04.01-.03.01-.04.01-.04z"/><path d="M89.03 315.58l-1.86 5.1-1.1 3.38c-.05.55-.47 1.42-.58 2.06l-.15.2a2.59 2.59 0 0 1-.2.67h-.02c-.05.33-.2.67-.23.84l-.02-.02-.12.38-.01-.07a11.7 11.7 0 0 1-.5 1.61l.1-.01c-.45 1.03-.4 1.47-.83 2.4h-.02c-.2 1.28-.8 1.86-1 3.17.03-.16-.06.05-.08.03-.17.58-.36 1.2-.2 1.26-.14.42-.16.32-.25.36.07.02-.02.4-.12.72l.02-.16-.3.94.2-.14c-.2.48-.2.07-.33.56l.1.03c-.25.68-.55 1.02-.86 1.66l-2.73 8.3-.12.1c-.14.01-.06.77-.2.83l-.04.32c-.05.08-.13.25-.1.1-.1.27-.08.3-.1.5l-.17.27c-.42 1.07-.6 2.04-1 3.18-.62 1.32-1.34 3.96-1.76 5.48-.52 2.16-1.82 4.44-2.33 6.66-.04.06-.06.26-.05.26l-.68 1.96s-3.24 9.52.2 2.6v.06c.42-1.05.67-1.73.78-2.5.2-.06.3-.88.45-1.1l.01.03c.1-.7.56-1.32.66-2 0 .03.05.06 0 .2.13-.47.3-1.1.42-1.1l1-3.4.01.06c.03-.44.16-.53.26-1 .02-.02.04-.05.04-.04.05-.47.4-1.28.5-1.65h.07l.28-.88-.12.32c-.14-.17.33-.62.43-1.3.22-.58.04-1.32.33-1.9.02-.32.05.3.13-.16.1.02-.01.22.1.14.1-.44.33-.67.45-1.23h.08c.1-.74.53-1.28.56-1.78.18-.73.37-.4.48-1.2l.2-.26c.12-.3-.04-.27.12-.6.05.04.2-.43.2-.2.36-.77.4-1.67.92-2.66-.04-.27.2-.77.18-.97.06-.01.36-1.06.28-.43-.01.05-.04.14-.06.13l.05.1c.33-.56.3-1.1.5-1.7-.08.17-.15.4-.15.23l.2-.55.02.13.3-.8-.1.1c.17-.4.34-.5.4-.98.01-.22-.22.35-.1-.08l.82-1.98c-.1.04-.04-.15.01-.34h.08c.15-.76.25-.2.4-.96l.03.08-.08-.24c.08-.7.26-.3.32-1.1-.08.3-.2.08-.05-.26l.04.1c.05-.2.04-.27.1-.4 0 .13.08.1.16-.2l.02.22.06-.58c.2-.4.34-1.1.5-1.23 0 0 .35-.88.3-1.13.01.2.2-.3.23-.12 0-.26.17-.97.35-1.22l-.01.06c.42-1 .47-1.78.88-2.66-.1.01.1-.45-.03-.37.2-.98.8-1.66.58-2.1.13-.44.25-.5.34-.7l-.02.1.53-1.65c.07-.3-.07-.4.15-.93 0 .2.06-.03.13-.23-.03.13-.02.18.1-.07-.01-.04 0-.1.01-.16.1-.34.07-.3.01-.14-.01-.01-.02 0-.06.04.2-.32.32-.97.44-.98l.7-2.62c.08-.08.07.14.01.4l.18-.6c.07.03-.07.36-.12.54.36-.67.37-1.5.76-2.3v-.2l.03-.05c-.03-.01-.01-.2.02-.34.1-.1.15.06.28-.35.17-.3.28-.93.38-1.37-.1.23-.1.14-.1.03.07-.2.17-.3.2-.47l.1.01c-.1.05.1-.57.08-.66.1-.1-.05.34-.02.4l.4-1.24c.08-.46-.1.05-.12-.2.1-.4.18-.8.38-1.22l-.13.1c.18-.75.34-1.18.58-1.65 1.17-5.65-.5-1.44-.5-1.44-.94 2.08-1.08 3.26-1.87 5.83zm3.47 29.82c.13.3.04.46.27.7.07.14.2.27.3.4.15 0 .1.17.24.2l-.04.07c.05.01.1.02.07.07l-.02.01c.07.01.07.07.1.08l-.02.01.04.04-.03.01c.1.04.14.1.15.18l.07-.05c0 .18.18.14.15.3l-.02.01c.3.03.01.32.3.36-.03-.01-.03.03-.05.04.06.06.12.13.27.04.03.05-.02.07-.07.1.06-.04.12-.01.15.03h-.04l.1.1.1-.1c0 .08-.14.1-.07.15l.1-.06c.03.1-.1.24-.12.36.16.37.64.58.65 1l-.07.06c-.1.07.22-.01.12.06l.07.01c-.01.02-.02.06-.06.05.02.04.03.03.08.03l-.05.08c.03.17.23.2.3.36-.04.25.28.5.47.64.32.16.06.73.4.88-.01.02.04.02.05.01l.13.25s.67 1.2 1.04-.24l.03-.01c-.02-.17-.06-.26-.24-.28.14-.1-.05-.12-.02-.18h.01c-.16-.01-.01-.22-.16-.24.01 0 .06-.03.07-.01-.05-.05-.13-.1-.05-.16-.1-.12-.18-.34-.37-.34l.03-.01c-.12.01-.05-.06-.13-.08.01-.01.01-.02.02-.02-.12 0-.1-.15-.18-.17l.06-.04-.08-.1.01.05c-.17.08.05-.14-.1-.16-.02-.1-.42.05-.4-.07-.1.01.14-.04.05-.06.08-.05.07-.01.12-.06-.07-.03.03-.14-.06-.17l.06-.04c-.17-.02-.01-.2-.16-.2-.1-.06.15-.17-.03-.2l.06-.1c-.01-.05-.12.04-.1-.03.06-.03.01-.08.08-.1.03-.15-.24-.13-.18-.34-.12.04-.1-.07-.2-.04.04-.03-.07-.14.07-.12.01 0 .02.01 0 .02l.07-.03c.07-.15-.15-.1-.17-.18-.01.03.02.06-.04.07l-.03-.07.06-.02-.03-.12-.06.05c0-.07.1-.15-.02-.15-.07.01-.06.1-.1.06 0-.1.01-.23-.02-.33-.07.05-.08.03-.1.01l.06-.04c-.14-.04.12-.12 0-.16l.05-.02-.15.06c-.18 0 .1-.12-.12-.1.03.03-.13.1-.13.04l.07-.03c-.03-.02-.06-.01-.06-.03.04-.01.1-.05.06-.08h.1-.15c.04-.1-.1-.12-.02-.2 0 0-.02-.14-.14-.1.07-.01.06-.1.14-.1-.08.01-.2-.04-.14-.12h.01c0-.17-.23-.16-.2-.32-.07.05-.07-.03-.15.04-.16-.06.06-.33-.25-.2-.05-.04.03-.1.03-.14h.02c-.08-.1-.1-.1-.14-.2-.05-.02-.2.06-.2-.03.07-.01.04-.03.03-.06.02.01.04 0 .06-.05-.02.01-.03 0-.05 0h.01c-.04-.03-.06-.01-.05.01-.01 0-.02.01-.03.03.04-.1-.08-.12.01-.18-.1-.1-.25-.14-.34-.22.04-.04.1-.04.13-.02l-.06-.06c.07-.04.07.02.1.03.06-.15-.22-.1-.18-.28l-.07.01.01-.01c-.03.02-.08.02-.1.01.05-.05.14-.08.1-.13.03-.08-.1-.1-.16-.13.01.03-.03.05-.06.05-.02-.02.03-.07 0-.08l.08-.05c-.07.06-.12-.02-.16-.01.05-.05.08.01.12-.01l-.1-.15c-.1-.02-.07.06-.16.07-.04-.04-.13-.05-.1-.14l-.06.06c-.1-.06-.13-.12-.1-.22-1-.32-.88.34-.88.34.02.36.3.37.56.65zm-4.98 4.9c.16.28.08.45.33.68.08.14.2.25.32.36.15-.02.12.16.26.17l-.04.07c.05 0 .1.02.07.06l-.02.01c.07 0 .07.06.1.07l-.02.01.04.04-.03.01a.27.27 0 0 1 .17.16l.07-.06c.01.18.2.12.18.3l-.02.01c.3 0 .04.3.32.33-.04 0-.03.03-.05.05.07.05.13.1.27.01.03.05-.01.07-.06.12.06-.04.12-.02.15.01h-.04l.1.1.1-.1c.01.08-.13.12-.06.15l.1-.07c.04.1-.07.24-.08.37.2.35.7.5.74.93l-.06.07c-.1.08.2-.03.13.05h.07c-.01.02-.02.06-.05.06.02.03.04.02.1.02l-.04.08c.04.16.25.18.32.33-.01.26.33.47.53.6.33.13.13.72.5.83-.01.02.04.02.05.01l.15.24s.77 1.13 1-.34h.03c-.04-.17-.08-.25-.26-.25.13-.12-.06-.1-.04-.18h.01c-.16 0-.03-.22-.18-.22.01-.01.05-.03.07-.02-.06-.04-.14-.1-.06-.15-.12-.1-.2-.32-.4-.3h.03c-.12.02-.06-.05-.14-.07.01-.01.01-.02.02-.02-.12.01-.12-.14-.2-.15l.05-.04-.1-.1.02.05c-.16.1.04-.14-.1-.15-.03-.08-.4.1-.4-.04-.1.02.13-.05.04-.06.08-.06.07-.01.12-.07-.07-.02.02-.14-.08-.16l.06-.05c-.17 0-.03-.2-.18-.2-.1-.05.14-.2-.04-.2l.06-.1c-.01-.05-.12.05-.1-.02.05-.04 0-.08.07-.1.01-.15-.25-.1-.2-.33-.12.05-.1-.06-.2-.02.04-.04-.08-.13.06-.13.01 0 .02.01 0 .02l.07-.04c.06-.15-.15-.08-.2-.16 0 .03.02.06-.03.07l-.04-.07.06-.02-.04-.12-.05.06c0-.07.1-.16-.04-.15-.07.01-.05.1-.1.07 0-.1-.01-.23-.05-.33-.06.06-.08.04-.1.02l.06-.05c-.15-.02.1-.13-.02-.16l.05-.02-.14.07c-.17.01.1-.13-.13-.1.03.03-.12.1-.12.05l.07-.03c-.03-.01-.06 0-.06-.03.04-.01.1-.06.06-.08l.1-.03-.15.02c.03-.1-.1-.1-.04-.2 0 0-.04-.13-.14-.1.07-.02.05-.1.13-.13-.08.02-.2-.02-.15-.1h.01c-.02-.17-.24-.13-.24-.3-.07.06-.07-.03-.15.05-.17-.04.03-.33-.27-.17-.05-.04.02-.1.02-.14h.02c-.1-.08-.1-.1-.16-.18-.05-.01-.18.07-.2-.01.07-.02.04-.04.02-.06.02.01.04 0 .05-.06-.02.01-.03.01-.05.01l.01-.01c-.05-.03-.06-.01-.05.02-.01 0-.02.01-.03.03.04-.1-.1-.1 0-.18-.1-.1-.26-.12-.36-.2.04-.04.1-.05.13-.04l-.07-.06c.07-.05.07.01.1.02.04-.16-.23-.1-.2-.26h-.07c-.03.02-.08.03-.1.02.05-.06.13-.1.1-.14.03-.08-.1-.1-.17-.1.01.03-.03.05-.06.05-.02-.02.03-.08-.01-.08l.07-.06c-.06.06-.12-.01-.16.01.05-.06.08 0 .12-.02l-.12-.14c-.1-.01-.07.06-.15.1-.05-.03-.13-.04-.13-.12l-.06.07c-.1-.05-.14-.1-.12-.2-1-.22-.85.42-.85.42.05.37.34.35.6.6zm-4.86 5.45c.14.24.05.4.28.58.07.1.2.2.3.3.14-.03.1.13.24.13l-.04.07c.04 0 .08.01.07.05v.01c.07 0 .07.05.1.05l-.02.01.04.03-.03.01c.1.02.13.07.15.13l.07-.06c0 .16.17.1.16.25h-.02c.27-.03.02.28.3.26-.03 0-.03.03-.05.05.06.04.12.1.25-.02.03.04-.02.07-.06.1.06-.05.1-.03.14 0h-.03l.1.07.1-.1c.01.07-.13.12-.06.14l.1-.07c.03.08-.08.23-.1.34.17.3.63.4.66.76l-.06.07c-.1.08.2-.05.12.03l.07-.01c-.01.02-.02.05-.05.06.02.03.03.02.08.01l-.04.08c.03.14.22.13.3.26-.02.23.3.4.47.47.3.08.1.63.42.7-.01.02.04.01.05 0l.13.2s.68.94.97-.4h.03c-.03-.14-.07-.22-.23-.2.13-.12-.05-.1-.03-.15l.01-.01c-.15.02-.02-.2-.16-.18.01-.01.05-.03.06-.02-.05-.03-.13-.07-.05-.13-.1-.1-.18-.26-.36-.23l.03-.01c-.12.03-.05-.04-.13-.05.01-.01.01-.02.02-.02-.12.02-.1-.1-.17-.12l.05-.04-.08-.07v.04c-.15.1.04-.13-.1-.12-.03-.07-.4.12-.37.01-.1.03.13-.06.04-.06.07-.06.06-.02.1-.08-.07-.01.02-.13-.07-.14l.06-.05c-.16.02-.02-.2-.16-.15-.1-.03.14-.18-.03-.16l.06-.1c-.01-.04-.1.05-.1-.01.05-.04.01-.07.07-.1.02-.14-.23-.07-.18-.27-.1.05-.1-.04-.18 0 .04-.04-.07-.1.06-.12.01 0 .02.01 0 .02l.06-.04c.06-.14-.14-.06-.17-.13-.01.03.02.05-.03.07l-.03-.06.06-.03-.03-.1-.05.06c0-.06.1-.16-.03-.13-.06.02-.05.1-.1.07 0-.08 0-.2-.03-.3-.06.06-.07.04-.1.03l.06-.05c-.14-.01.1-.13-.01-.14l.05-.03-.14.08c-.17.03.1-.13-.12-.07.03.02-.12.1-.12.06l.06-.04c-.03-.01-.06 0-.05-.02.04-.01.1-.06.06-.08l.1-.04-.14.03c.03-.1-.1-.1-.03-.17 0 0-.03-.12-.13-.07.07-.03.05-.1.13-.13-.08.03-.18 0-.14-.08h.01c-.01-.15-.22-.1-.2-.25-.06.06-.06-.02-.14.06-.16-.02.05-.3-.25-.12-.05-.03.02-.1.02-.13h.02a.46.46 0 0 1-.14-.14c-.05-.01-.18.1-.2.01.06-.02.04-.04.02-.06.02.01.04 0 .05-.06-.02.01-.03.01-.04.01h.01c-.04-.02-.05 0-.05.02-.01.01-.02.01-.03.03.04-.08-.08-.1 0-.16-.1-.08-.24-.08-.33-.13.04-.04.1-.06.13-.05l-.06-.04c.06-.05.06 0 .1.01.05-.15-.2-.06-.18-.2l-.06.02h0a.23.23 0 0 1-.09.03c.05-.05.13-.1.1-.14.03-.07-.1-.07-.16-.08.01.03-.03.05-.05.05-.02-.02.03-.07-.01-.07l.07-.06c-.06.06-.12.01-.15.03.05-.05.07-.01.12-.03-.07-.07-.03-.04-.1-.1-.1 0-.06.06-.14.1-.04-.03-.12-.02-.1-.1l-.06.07c-.1-.03-.13-.08-.1-.18-.94-.1-.82.47-.82.47-.06.35.22.3.46.5z"/></g><path xmlns="http://www.w3.org/2000/svg" d="M121.46 312.2l-.22-1.17c-.28.07-.5.1-.53.08l-5.18 1.58c-.2 0 .18-.16.67-.3l-1.2.34c-.01-.08.68-.23 1.05-.35-1.48.26-2.94.92-4.66 1.26l-.33.16h-.1c.01.03-.35.18-.6.25h-.01l-.28 1.13 7.2-1.85 4.2-1.14zm-1.5 29.18c-.1.04-.3.08-.28.06l-.13.1c.8-.12 1.48-.36 2.18-.6l-.16-1.22-9.47 2.5-.25-.02c-.13-.1-1.4.57-1.62.5l-.6.22c-.18.02-.54.1-.25-.01-.56.14-.57.17-.97.3l-.62.08-4.96 1.37-.07.3.22.63.22-.06.06.06c1.38-.5 2.7-.6 3.6-.98 1.44-.44 1.03-.04 2.5-.6l.62-.06c.65-.16.43-.24 1.16-.4-.03.07.92-.2.52-.02 1.65-.33 3.27-1 5.45-1.42.43-.24 1.53-.46 1.86-.64.06.04 2.16-.57.98-.13z"/><path xmlns="http://www.w3.org/2000/svg" d="M292.52 414.76l-9.5-34.9 26.4-6.3 12.3 42z" fill="#fff"/><path xmlns="http://www.w3.org/2000/svg" d="M361.86 422.23c-.01.02-.02.03-.03.04-.02.07-.02.14-.04.2l.07-.25z"/><path xmlns="http://www.w3.org/2000/svg" d="M362.35 419.24c-.1-.5-.23-.62-.42-1.08.22.7-.18.43-.36-.5l.17.2c-.15-.5-.24-.66-.3-1 .14.3.2.13 0-.64l.27.48-.3-.7c-.1-.24-.17-.44-.36-.8-.25-.83-1.02-1.5-1.65-1.87l-1.4-.82s-.6-.28-1.28-.5c-.68-.23-1.42-.42-1.72-.4.5.03-.8-.4-.38-.42-.66-.05-2.47-.45-3.14-.8l.14.03-6.83-2.2c.06.17-1.15-.33-.9-.05-2.5-.67-4.3-1.92-5.35-1.7-1.1-.37-1.26-.6-1.8-.84l.27.07-4.2-1.5c-.78-.23-1-.03-2.33-.6.48.07-.1-.12-.6-.32.33.1.45.1-.2-.2a2.35 2.35 0 0 1-.4-.08c0-.01-.03-.03-.01-.03-.86-.3-.73-.2-.34-.04-.03.01 0 .04.1.1-.83-.46-2.46-.93-2.5-1.14l-.9-.33c-.06-.03-.15-.02-.2-.08l-.18-.22-.54-.7c-.2-.23-.3-.44-.6-.73-.52-.52-1.32-.8-2.02-.67a2.44 2.44 0 0 0-.5.12l-.4.14-.8.27c-.27-.02.22-.25.84-.47l-1.54.5c-.02-.13.87-.34 1.34-.5-1.9.35-3.74 1.35-5.95 1.8l-.42.24-.13.02c.02.05-.44.27-.76.38-.34-.02-.05-.27-1.12.06-.88.15-2.4.78-3.48 1.17.6-.16.43-.04.18.08-.53.16-.87.14-1.27.32l-.1-.14c.25.08-1.35.57-1.53.7-.34-.02.8-.35.9-.47l-3.2 1c-1.1.46.25.08-.26.38-1 .33-1.96.73-3.14 1l.4.02c-1.87.67-3 1-4.33 1.25l-3 1.2-3.72 1.12a2.44 2.44 0 0 0-.76.42c-.26.14-.56.37-.8.8a2.4 2.4 0 0 0-.27 1.06l.01 1.25.08 3.2-.06-.12c.25 2.92.42 4.7.94 6.73-.25.38.42 2.42.52 3.1l-.04-.06c.65 1.7.82 3.65 1.58 5.24-.04-.06-.13-.07-.26-.44.43 1.2 1.1 2.8 1 2.94.12.3.32.87.68 1.3a3.7 3.7 0 0 0 1.33 1.05c.52.24 1.1.36 1.7.34.65-.05.96-.16 1.4-.23l4.03-.98-.12.07c1.04-.4 1.38-.3 2.57-.62.07.01.16 0 .15.02 1.13-.4 3.4-.7 4.33-.95l.08.1 2.32-.48-.87.15c.24-.36 1.8-.15 3.45-.67 1.6-.27 3.08-1.25 4.75-1.42.75-.3-.64.36.5.03.07.15-.53.2-.2.27 1.13-.3 1.9-.2 3.3-.58l.08.1c1.8-.58 3.52-.5 4.7-.97 1.88-.47 1.35.1 3.3-.5l.8.02c.85-.14.57-.32 1.52-.42-.04.12 1.2-.15.67.06 2.16-.25 4.28-1.07 7.14-1.34.57-.32 2-.47 2.43-.7.1.07 2.83-.53 1.3-.04-.13.04-.37.1-.36.05l-.17.16c1.65-.08 2.88-.7 4.47-.96-.48.05-1.1.18-.7.02l1.47-.27-.3.16 2.2-.37-.33-.07c1.1-.14 1.5 0 2.68-.42.53-.2-1.05.03.07-.23l5.46-.8c-.2-.1.3-.2.8-.32l.08.1.7-.2.48-.18c.24-.1.37-.13.5-.17.13-.03.25-.07.48-.22.2-.15.54-.4.88-.98l.1-.54c.2-.57.26-.94.3-1.2l.1-.6a1.3 1.3 0 0 0 .04-.72z"/><g xmlns="http://www.w3.org/2000/svg" fill="#fff"><path d="M300 428.3l5.36-.86 3.48-.7c.5-.22 1.47-.28 2.08-.5l.26.02c.2-.08.46-.15.7-.15l-.01.02c.3-.1.7-.15.84-.2v.02l.4-.08-.06.04a11.9 11.9 0 0 1 1.65-.35l-.06-.08c1.12-.1 1.48-.36 2.5-.43v.02c1.2-.46 2-.22 3.26-.67-.16.06.08.03.07.05.6-.14 1.22-.27 1.2-.44.43-.08.36-.01.43.04-.02-.07.35-.17.7-.24l-.15.06.96-.2-.22-.1c.52-.06.16.15.65.02l-.03-.1c.7-.1 1.16-.01 1.87-.06l8.58-1.65.13.06c.07.12.7-.32.82-.23l.3-.12c.1.01.28 0 .13.05.3-.05.3-.07.5-.15h.32c1.14-.15 2.07-.48 3.27-.67 1.46-.1 4.1-.76 5.65-1.13 2.14-.6 4.76-.57 6.95-1.2.08 0 .26-.07.25-.1l2.04-.36s9.9-1.8 2.2-1.44l.05-.04c-1.13.14-1.83.26-2.58.54-.15-.15-.92.15-1.2.15v-.02c-.66.26-1.42.15-2.06.4.02-.02.03-.07.18-.1-.47.1-1.12.27-1.17.18l-3.44.8.04-.04c-.4.18-.54.12-1 .26-.03-.01-.06-.01-.06-.02-.43.2-1.32.26-1.68.38l-.04-.06-.9.18.34-.05c-.08.2-.7.01-1.34.25-.62.1-1.17.6-1.83.64-.3.14.24-.2-.2-.04-.03-.1.2-.1.07-.15-.44.13-.75.04-1.3.2l-.04-.07c-.7.27-1.37.16-1.83.37-.73.2-.54-.12-1.28.16l-.32-.04c-.33.05-.2.17-.6.2.01-.07-.47.04-.27-.06-.85.06-1.65.45-2.78.5-.2.17-.78.2-.94.32-.04-.05-1.1.2-.5-.03.05-.02.15-.04.14-.01l.06-.1c-.65-.02-1.12.3-1.73.38.2-.01.43-.06.28.02l-.57.1.1-.08-.86.12.13.05c-.42.04-.6-.06-1.04.13-.2.1.4.03-.02.13l-2.13.24c.08.07-.1.1-.3.16l-.04-.07c-.74.24-.3-.1-1.04.1l.06-.06-.17.2c-.65.27-.4-.08-1.1.26.3-.07.17.14-.2.17l.08-.1c-.2.05-.26.1-.4.1.1-.06.04-.12-.25-.05l.18-.13-.54.24c-.45.01-1.12.23-1.32.16 0 0-.94.13-1.14.28.17-.1-.34-.03-.2-.14-.23.12-.93.32-1.23.3l.05-.02c-1.07.1-1.8.45-2.75.53.06.08-.45.12-.3.2-.96.3-1.83.1-2.12.52-.44.1-.54.02-.78.05l.1-.04-1.7.34c-.3.1-.32.26-.9.32.17-.1-.06-.04-.26 0 .13-.03.17-.07-.1-.06-.03.03-.1.05-.15.07h-.01c-.34.1-.28.1-.12.07-.01.01.01.02.06.03-.38-.01-1 .2-1.07.1l-2.63.67c-.1-.04.1-.12.33-.2l-.6.14c-.01-.08.35-.1.53-.16-.76.01-1.5.4-2.37.45l-.17.1h-.05c.01.03-.18.1-.3.15-.13-.05-.02-.16-.45-.08-.35 0-.95.2-1.38.33.24-.03.17.02.07.06-.2.04-.35 0-.5.06l-.04-.1c.1.07-.54.2-.6.25-.13-.05.32-.12.36-.18l-1.28.25c-.44.16.1.07-.1.2-.4.1-.78.23-1.25.26l.16.05c-.74.2-1.2.28-1.72.3-5.5 1.73-1 1.14-1 1.14 2.3-.17 3.4-.63 6.04-1.2zm25.63-17.24c.2-.26.38-.25.5-.58.1-.13.14-.3.2-.44-.07-.13.1-.18.05-.3l.08.01c-.02-.04-.02-.1.03-.1v.01c-.02-.07.03-.1.02-.13l.02.01.02-.05h.02a.26.26 0 0 1 .08-.22l-.08-.04c.16-.08.03-.22.2-.28v.01c-.1-.27.27-.16.17-.43.01.03.04.01.06.03.02-.08.05-.17-.1-.25.03-.05.07-.02.13.01-.07-.04-.07-.1-.05-.14l.01.03.04-.13-.14-.05c.07-.04.16.07.16-.01l-.1-.06c.07-.07.25-.04.37-.08.24-.32.2-.84.56-1.06l.08.03c.12.06-.1-.18 0-.14l-.03-.07c.03 0 .06-.01.07.02.02-.03.01-.04-.01-.1h.1c.13-.1.06-.3.17-.43.24-.1.3-.5.33-.72-.02-.36.6-.4.57-.8.02 0 0-.04-.01-.05l.16-.24s.73-1.17-.72-.8v-.02c-.14.1-.2.18-.13.34-.16-.07-.08.1-.15.1h-.01c.07.15-.2.1-.13.25-.01-.01-.05-.04-.04-.05-.01.07-.03.17-.12.12-.06.15-.2.32-.12.5l-.02-.02c.07.1-.02.07-.01.16-.01 0-.02 0-.03-.01.06.1-.08.17-.06.24l-.06-.03-.05.12.04-.03c.15.1-.15.03-.1.16-.06.06.25.34.12.37.05.08-.1-.1-.08-.01-.08-.05-.04-.06-.1-.08.01.08-.14.04-.12.14l-.07-.03c.07.15-.18.1-.1.24 0 .12-.23-.05-.15.12h-.1c-.04.03.1.1.02.1-.05-.03-.08.03-.1-.03-.14.05.01.27-.2.32.1.1-.01.12.06.2-.05-.02-.08.13-.14 0 0-.01 0-.02.02-.01l-.06-.05c-.16.01-.01.17-.07.24.03-.01.04-.04.08 0l-.05.06-.05-.05-.1.08h.07c-.06.03-.2-.02-.12.1.04.06.12 0 .1.07-.08.04-.2.1-.28.18.08.03.06.06.06.1l-.07-.03c.04.14-.16-.05-.14.08l-.04-.03.12.1c.08.16-.16-.03-.04.16.01-.04.15.06.1.1l-.06-.05c0 .03.02.06 0 .06-.03-.03-.1-.06-.1-.02l-.06-.07.08.13c-.1.01-.06.15-.16.12 0 0-.1.1-.03.17-.05-.06-.1-.01-.17-.07.05.07.06.2-.03.18v-.01c-.15.1-.02.28-.18.34.08.04 0 .07.1.12.03.17-.32.1-.05.32-.01.06-.1.02-.14.04v-.02a.5.5 0 0 1-.1.22c.01.05.14.14.07.2-.04-.05-.05-.02-.06.01 0-.02-.02-.04-.07-.03.01.01.02.03.03.04-.01.04.01.05.03.03.01.01.02.01.04.01-.1 0-.06.12-.16.08-.05.14 0 .28-.03.4-.06-.02-.08-.07-.1-.1l-.02.08c-.07-.04-.02-.07-.02-.1-.16.02.01.25-.15.3l.04.05h-.01c.03.02.06.06.06.08-.07-.02-.14-.08-.17-.03-.08.01-.04.13-.03.2.03-.02.06.01.07.03-.01.03-.08.01-.07.04l-.08-.04c.08.03.04.1.07.14-.07-.02-.03-.07-.07-.1-.05.1-.03.05-.08.16.03.1.08.03.14.1-.01.06.02.14-.06.17l.08.02c0 .12-.04.17-.14.2.2 1.02.73.6.73.6.33-.12.2-.38.32-.73z"/><path d="M331.06 412.73c.17-.28.36-.3.43-.62.08-.14.1-.3.16-.46-.08-.12.08-.2.02-.3h.08c-.02-.04-.03-.08.02-.1l.02.01c-.03-.06.02-.1 0-.13v.01l.01-.05.02.02c-.02-.1.01-.17.06-.22l-.08-.03c.15-.1.01-.22.17-.3v.01c-.14-.25.26-.2.13-.44.02.03.04.01.06.02.01-.1.04-.17-.12-.24.03-.05.07-.02.13 0-.07-.03-.08-.1-.06-.14l.02.03.03-.13-.14-.03c.07-.05.16.06.16-.02l-.1-.05c.06-.08.25-.06.37-.1.2-.34.1-.85.46-1.1l.1.02c.12.05-.13-.17-.02-.14l-.04-.06c.03 0 .06-.01.08.02.02-.03 0-.04-.02-.1h.1c.12-.12.04-.3.13-.44.23-.1.25-.5.26-.75-.05-.35.56-.46.5-.83.02 0-.01-.04-.02-.05l.13-.25s.6-1.23-.8-.72l-.02-.02c-.13.1-.18.2-.1.35-.16-.06-.07.1-.13.12h-.01c.08.14-.18.13-.1.26-.01-.01-.05-.03-.05-.05-.01.07-.01.17-.1.13-.04.16-.18.34-.07.5l-.02-.02c.07.1-.02.07.01.16h-.03c.07.1-.06.17-.04.24h-.06l-.04.12.03-.04c.16.1-.14.04-.07.17-.06.07.28.32.16.36.06.07-.1-.1-.08-.01-.1-.04-.04-.05-.12-.07.02.08-.13.05-.1.15l-.07-.03c.08.15-.17.13-.08.24.01.12-.23-.03-.14.13h-.1c-.03.03.1.08.03.1-.06-.03-.07.04-.12-.01-.14.06.03.27-.18.34.1.08 0 .12.07.18-.05-.02-.07.14-.14.01-.01-.01 0-.02.02-.01l-.06-.04c-.16.02 0 .17-.05.24.03-.01.04-.05.08 0l-.04.07-.05-.04-.08.1.08.02c-.06.04-.2 0-.1.1.04.05.12-.01.1.06-.08.05-.2.12-.26.2.08.03.07.05.07.08l-.07-.03c.05.14-.17-.03-.13.1l-.04-.03.13.1c.1.15-.16-.02-.02.16.01-.04.16.05.1.08l-.06-.04c0 .03.03.05 0 .06-.03-.03-.1-.05-.1-.01l-.07-.06.1.13c-.1.02-.05.15-.15.13 0 0-.1.1-.01.17-.05-.05-.1 0-.17-.05.06.06.07.18-.02.18h-.01c-.14.1 0 .28-.15.35.08.03.01.07.12.1.04.17-.3.13-.02.32-.01.06-.1.03-.13.06l-.01-.02c-.02.12-.03.15-.08.22.01.05.15.13.1.18-.05-.05-.05-.02-.06.01 0-.02-.02-.04-.07-.02.02.01.02.03.03.04-.01.04.01.04.03.03.01.01.02.01.04.01-.1.01-.05.13-.15.1-.04.14.02.28.01.4-.06-.01-.1-.06-.1-.1l-.02.1c-.07-.03-.02-.06-.03-.1-.16.04.03.24-.13.3l.05.05h-.01c.03.01.06.06.06.08-.07-.01-.15-.07-.17-.01-.08.01-.02.13-.02.2.02-.03.06 0 .07.02-.01.03-.08.01-.06.05l-.1-.04c.1.03.06.1.1.14-.07-.01-.04-.07-.08-.1l-.06.17c.04.1.1.03.15.1-.01.06.03.14-.05.17l.08.02c.02.12-.02.18-.13.2.3 1 .78.54.78.54.32-.22.16-.47.26-.83z"/></g><path xmlns="http://www.w3.org/2000/svg" d="M316.78 396.95l-.07-.6c-.17-.64-.25-.42-.4-1.15.07.03-.2-.9-.03-.5-.37-1.63-1.1-3.22-1.55-5.38-.25-.42-.5-1.5-.68-1.83.04-.07-.62-2.13-.15-.97.04.1.1.28.07.28l.1.12a9 9 0 0 0-.37-1.36l-1.2.3 2.43 8.42-.02.25c-.1.14.6 1.37.54 1.6l.23.58c.03.17.1.54-.01.25.16.56.18.56.34.95l.1.62 1.02 3.4.96-.3c-.23-.84-.38-1.62-.64-2.2-.5-1.4-.1-1-.66-2.46zm-27.63 3l-.63-2.48-1.06.57.6 1.9c-.1-.47-.04-.33.04-.13.12.4.1.67.23.98l-.08.06c.04-.2.4 1.06.47 1.2 0 .25-.23-.63-.3-.72l.7 2.5c.3.87.04-.18.24.22l.7 2.44v-.3l.88 3.35c.01.03.02.05.03.07l.97-.22-2.77-9.42z"/><path xmlns="http://www.w3.org/2000/svg" d="M318.98 382.2l-.17-.9-.64-3.28-1.3-6.52-2.74-12.65a15.96 15.96 0 0 0-.25-1.16l-.14-.53c-.04-.13-.06-.22-.07-.2l-3.13-15.05s-10.26-49.17-8.45-35.88l-.46-2.08c-.44-1.97-1.6-5.74-3.2-10.74 4.3 11.9 4.38 13.13 4.12 10.54-.46-3.16-2.98-11.16-2.98-11.16-2.46-8-4.55-14-6.83-20.34l-8.14-22.4-13.4-37.97-1.5-4.1H192.4l-.7 11 .3-11h-.7c-.38 3.25-.78 7.87-.78 7.87-1.35 14.65-1.5 22.24-2.62 39.7l-1.5 17.42c-.13 1.2-.3 2.4-.58 3.53-.3 1.13-.7 2.14-1.53 2.92-.82.8-2.05 1.47-3.52 2.1l-5.03 2.13-21.37 8.98c-3.18 1.55-9.02 3.76-12.8 5.53l-1.54.5c-1.3.6-2.85 1.3-4.2 1.8l.07-.07c-1.95.9-4.2 1.8-5.18 2.25l.07-.07-2.4 1.02.4-.22a212.93 212.93 0 0 1-5.18 2.24l-2.54 1.06c-.15.06-.56.22-.83.45-.3.22-.55.5-.73.86-.18.34-.3.74-.28 1.14a2.54 2.54 0 0 0 .07.57l.08.33.07-.3c1.6 7.1 2.55 9.6 3.96 16.02l-.06-.08c1.2 3.98 1.93 7.18 2.67 10.4l.56 2.44.3 1.25.15.64c.06.3.2.66.4.95.4.6 1.02 1.04 1.7 1.22.35.1.7.1 1.07.07l.28-.05.18-.04.35-.1 2.97-.77c-1.03.28.46-.03.4.02 3.84-.92 7.94-1.9 7.94-2.18 2.8-.64 2.3-.44 2.7-.42-.04-.12 2.38-.73 4.56-1.24l-1 .28 6.26-1.5-1.28.06c3.34-.7.9.08 4.08-.7l-.08-.18c4.6-1.03 7.37-1.37 11.85-2.26l28.2-6.8 13.9-3.5 3.4-.9c1.12-.28 2.25-.63 3.36-1 2.2-.78 4.35-1.7 6.3-2.92.26-.1.5-.2.75-.33.2-.03 1.23-.78 2.15-1.73.5-.44.93-.93 1.3-1.34.37-.4.68-.68.83-.8.44-.56.9-1.1 1.3-1.67.4-.45 1.2-1.42.58-.55.6-.77.86-1.2 1.1-1.56.23-.37.42-.67.75-1.3.4-.57.8-1.13 1.17-1.72.92-1.56 1.7-3.12 2.42-4.65l1.25-2.6c.6-1.3 1.42-3.4 2.4-6.02l2.94 4.22c3.1 4.53 6.15 9.04 9 13.53 2.82 4.5 5.57 8.94 7.54 13.45.08.28.14.56.2.85-.02.22.56 1.4 1 2.7.46 1.3.9 2.74.9 3.13l.68 2.23c.13.64.43 2 .1.88.52 2.1.57 2.13 1.02 3.62l.44 2.28 6.08 23.94c1.16 5.25 3.02 12.78 4.94 20.4l1.7 6.75a2.86 2.86 0 0 0 .17.52c.3.7.97 1.23 1.66 1.43a2.77 2.77 0 0 0 1.07.1c.4-.05.57-.1.8-.17l1.36-.32 9.8-2.34 12.4-2.87 6.45-1.4 3.26-.7 1.63-.35.82-.17a3.25 3.25 0 0 0 1.06-.46 3.24 3.24 0 0 0 1.33-1.86c.1-.42.1-.83.05-1.23z"/><g xmlns="http://www.w3.org/2000/svg" fill="#fff"><path d="M232.14 284.05l-.1-.2c-.01.01.01.07.1.2zm-31.08-49.33l-.03-.04c.02.03.03.04.03.04zm27.14 41.2l.05.05-.05-.05z"/><path d="M234.6 285.8l-3.8-6-2.6-3.85c-.5-.52-1.08-1.63-1.63-2.27l-.12-.3c-.2-.22-.4-.5-.52-.75h.03c-.28-.33-.52-.75-.66-.92h.03l-.3-.43.07.06a20.48 20.48 0 0 1-1.25-1.82l-.04.1c-.72-1.27-1.17-1.62-1.8-2.78h.03c-1.1-1.26-1.32-2.28-2.45-3.6.14.16-.01-.1.01-.1-.46-.65-.93-1.34-1.08-1.26-.32-.48-.2-.42-.2-.52-.06.04-.36-.36-.6-.73l.14.16-.73-1.06.02.3c-.34-.6.05-.24-.34-.77l-.1.07c-.5-.8-.66-1.36-1.1-2.17-2.04-3.2-4.43-6.5-6.06-9.64v-.18c.08-.12-.66-.74-.62-.92l-.26-.32c-.04-.1-.14-.33-.01-.17-.2-.33-.2-.33-.38-.54l-.14-.4c-.7-1.33-1.47-2.35-2.23-3.73-.8-1.72-2.68-4.76-3.76-6.5-1.57-2.43-2.73-5.63-4.33-8.13-.03-.1-.18-.3-.2-.28l-1.26-2.4s-1.53-2.9-2.58-4.65c-1.04-1.75-1.65-2.33.2 2.34l-.06-.05c.63 1.34 1.06 2.18 1.66 3-.08.22.56 1.08.67 1.42h-.03c.54.74.8 1.7 1.3 2.4-.03-.02-.08-.02-.18-.2.32.55.77 1.3.7 1.38.75 1.32 1.72 3.2 2.34 3.98l-.06-.04c.36.43.36.62.7 1.14 0 .04.02.08.01.07.38.48.87 1.53 1.15 1.94l-.04.06.6 1.04-.2-.4c.24.05.34.85.88 1.55.38.72 1.15 1.25 1.5 2.03.27.3-.3-.24.06.25-.07.06-.2-.22-.18-.04.33.5.4.9.82 1.5l-.05.06c.6.76.82 1.6 1.25 2.1.55.82.14.68.8 1.5l.12.4c.2.4.27.2.47.65-.07.01.27.56.07.34.47 1 1.27 1.85 1.88 3.18.27.2.58.87.8 1.02-.03.06.77 1.25.23.6-.05-.05-.1-.16-.1-.17l-.1-.04c.32.78.86 1.24 1.28 1.94-.1-.22-.28-.5-.13-.33l.4.65-.14-.1.58.98-.02-.17c.27.5.27.72.7 1.2.2.2-.2-.5.14-.02.36.65.9 1.63 1.4 2.43.02-.12.16.1.32.3l-.05.07c.64.78.07.4.68 1.18l-.1-.04.27.13c.62.67.14.5.86 1.2-.23-.32.03-.25.28.18l-.13-.06c.16.22.24.27.32.43-.12-.1-.13-.01.1.3l-.22-.17.52.55c.25.52.84 1.23.88 1.5 0 0 .64 1.06.9 1.24-.2-.17.16.42-.02.3.24.22.82.98.96 1.34l-.05-.05c.7 1.22 1.42 1.94 2.03 3.05.04-.1.37.5.37.3.8 1.03 1.12 2.1 1.67 2.3.34.5.32.63.48.9l-.1-.1c.64.9.82 1.18 1.27 1.87.25.33.42.3.8.93-.18-.16-.01.08.14.3-.1-.14-.15-.17.01.15.04.03.1.1.15.15 0 .01 0 .02-.01.02.27.37.25.3.13.1.01 0 .01-.02-.01-.08.2.44.74 1.1.68 1.22.8 1.14 1.43 1.9 2.1 2.85.02.14-.17-.06-.37-.33l.47.67c-.07.04-.3-.37-.45-.57.43.9 1.22 1.6 1.75 2.63l.18.16.03.06c.03-.02.2.17.3.3.03.17-.14.08.17.55.2.4.73 1.04 1.08 1.5-.16-.27-.08-.2.02-.1.16.23.2.4.33.58l-.06.07c.01-.14.5.56.58.63.03.17-.3-.33-.38-.36l.95 1.4c.4.47.01-.14.24.05.3.44.65.83.94 1.38l-.04-.2c.6.8.93 1.3 1.23 1.92 4.7 5.87 1.65.8 1.65.8-1.42-2.57-2.47-3.7-4.45-6.6zm53.27 90.7l-1.73-7.33c.1-.38-.57-2.6-.7-3.36l.03.07c-.57-1.9-.8-4-1.34-5.84.03.07.1.1.2.53l-.72-3.32c-.77-3.23-1.77-7.76-2.4-9.8l.06.14c-.38-1.16-.37-1.53-.73-2.84 0-.08-.02-.17-.01-.16-.4-1.26-.9-3.75-1.2-4.78l.05-.08-.62-2.56.2.96c-.26-.3-.35-1.96-.9-3.8-.4-1.74-1.23-3.43-1.6-5.26-.3-.84.33.72-.06-.54.08-.07.2.58.2.23-.37-1.25-.42-2.1-.94-3.63l.05-.1c-.85-1.93-1.2-3.8-1.88-5.02-.9-1.97-.36-1.42-1.38-3.44l-.3-.83c-.4-.88-.4-.57-.83-1.55.1.03-.54-1.24-.22-.7-.46-1.12-1.08-2.2-1.73-3.35s-1.3-2.4-2.05-3.82c-.45-.54-1.2-1.97-1.52-2.37.02-.1-1.65-2.75-.6-1.28.1.13.23.36.2.36l.17.15c-.82-1.62-1.78-2.78-2.7-4.33.26.47.63 1.07.34.7-.28-.48-.58-.95-.87-1.42l.24.26-1.3-2.12.12.33c-.62-1.05-.73-1.48-1.57-2.57-.4-.5.54 1.02-.18-.04l-3.24-5.2c.04.2-.27-.26-.6-.72l.03-.1c-1.3-1.77-.3-.76-1.6-2.53l-.3-.26c-1.22-1.55-.47-.97-1.86-2.67.5.7.1.43-.48-.47l.2.18c-.34-.48-.48-.63-.68-.96.23.27.2.1-.3-.62l.4.43-1.03-1.28c-.64-1.1-1.85-2.7-2.05-3.18 0 0-1.48-2.28-1.92-2.73.36.4-.45-.84-.15-.53-.46-.54-1.67-2.23-2.06-2.97l.1.13c-1.62-2.62-3-4.3-4.4-6.7 0 .15-.75-1.1-.65-.73-1.66-2.33-2.6-4.52-3.44-5.2-.7-1.1-.75-1.35-1.1-1.93l.18.25-2.56-4.23c-.5-.76-.7-.8-1.47-2.22.3.42-.02-.15-.32-.67.2.33.28.42-.08-.3-.07-.1-.17-.23-.26-.37 0-.01-.01-.04 0-.03-.52-.87-.45-.7-.22-.3-.02-.02-.01.02.04.16-.45-.95-1.44-2.54-1.4-2.7l-2-3.53-1.76-3.22c-.08-.28.23.23.6.87l-.84-1.58c.08-.02.5.9.78 1.38-.87-1.95-2.08-3.88-3.06-6.18l-.28-.44-.05-.14c-.03.02-.3-.47-.47-.8-.1-.35.16-.05-.37-1.17-.36-.9-1.17-2.52-1.73-3.68.27.64.14.45 0 .2-.25-.57-.34-.92-.55-1.35l.06-.1c.01.26-.72-1.45-.85-1.65-.07-.35.43.86.54.98L217 221.7c-.57-1.2.01.26-.3-.3-.46-1.07-.95-2.1-1.38-3.38l.08.43a44.93 44.93 0 0 1-1.75-4.68l-2.44-5.98h-.5a70.24 70.24 0 0 0 .9 3.03 88.49 88.49 0 0 0 2.85 7.8c1 2.4 2.12 4.94 3.68 8.46 2.72 6.2 3.34 7.9 6.58 14.13 1.52 2.98 3.27 6.1 4.92 8.93.86 1.3 2.2 3.7 3.2 5.22l.3.65c.35.53.77 1.14 1.08 1.7h-.04c.55.77 1.08 1.7 1.36 2.08l-.04-.02.62.97-.13-.15 2.64 4.06.01-.15c1.65 2.75 2.46 3.6 3.95 6.08l-.04-.02c2.2 2.9 3.08 4.88 5.36 7.87-.3-.37.08.2.04.17 1 1.42 2.04 2.94 2.2 2.87.7 1.05.53.88.57 1.05.06-.05.7.84 1.25 1.65l-.28-.36 1.6 2.32-.2-.54c.8 1.27.07.4.9 1.58l.1-.08c1.13 1.73 1.67 2.83 2.68 4.56 4.52 6.97 9.52 14.4 12.8 21.4l.07.35c-.05.2 1.1 1.83 1.1 2.15l.44.78c.1.24.3.73.08.34.35.75.35.77.63 1.3l.27.85a55.94 55.94 0 0 0 .92 2.2c.3.7.54 1.43.82 2.14l.82 2.18c.23.76.46 1.52.66 2.37.9 4.05 2.83 11.62 3.94 16 1.63 6.12 2.78 13.4 4.44 19.7a5.06 5.06 0 0 0 .2.73l1.3 5.8s6.3 28.07 2.52 6.52l.1.1z"/><path d="M254.27 285.42h0l.15.13z"/></g><path xmlns="http://www.w3.org/2000/svg" d="M303.8 434.3l-.1.03.1-.03zm28.9-27.83h0zm-1.05 5.2h0l.01.01zm5.65 2.02l.04-.01c-.01 0-.02-.01-.04.01zm1.96-4.75zm-.58 4.47h.01z"/><path xmlns="http://www.w3.org/2000/svg" d="M337.83 414.18c.14-.23.32-.24.37-.52.06-.12.08-.27.12-.4-.1-.1.06-.16-.01-.27h.08c-.02-.04-.04-.07.01-.08l.02.01c-.04-.06.01-.08-.01-.1l.02.01.01-.05.02.02c-.03-.08-.01-.15.04-.2l-.08-.03c.14-.08-.01-.2.14-.26l.02.01c-.16-.22.23-.15.1-.38.02.03.04.01.06.02 0-.07.02-.15-.14-.2.02-.05.07-.02.13 0-.07-.03-.08-.08-.07-.12l.02.03.02-.1-.14-.03c.06-.04.17.05.16-.01l-.1-.04c.05-.07.24-.04.35-.1.17-.3.04-.74.35-.95l.1.02c.12.04-.14-.15-.03-.12l-.04-.06c.03 0 .06-.01.08.02.02-.03 0-.04-.03-.08h.1c.1-.1.01-.26.1-.38.2-.1.2-.44.2-.64-.08-.3.5-.4.4-.7.02 0-.01-.04-.02-.04l.1-.2s.5-1.05-.83-.65l-.02-.02c-.1.1-.16.16-.06.3-.17-.05-.06.1-.12.1v-.01c.1.12-.17.1-.08.23-.01-.01-.05-.03-.05-.05 0 .06 0 .15-.1.1-.03.13-.14.3-.03.43l-.02-.02c.08.1-.01.06.02.14h-.03c.08.1-.04.15-.02.2h-.06l-.03.1.03-.03c.16.08-.14.03-.06.15-.05.06.3.28.18.32.07.07-.12-.08-.08-.01-.1-.04-.05-.05-.12-.06.02.07-.12.04-.1.13l-.07-.03c.1.13-.15.1-.05.2.02.1-.23-.03-.13.1l-.1-.01c-.03.03.1.07.04.1-.06-.03-.07.03-.1-.02-.13.05.05.24-.15.3.1.07.01.1.1.16-.05-.02-.06.12-.14 0-.01-.01 0-.02.02-.01l-.06-.04c-.16.01.02.15-.03.2.03-.01.04-.04.07 0l-.03.06-.05-.04-.07.08.08.02c-.06.03-.18 0-.1.1.05.05.1 0 .12.05-.07.04-.18.1-.24.17.08.03.07.05.08.07l-.07-.03c.06.12-.16-.03-.12.08l-.05-.03.14.08c.1.13-.16-.02-.01.14 0-.04.16.05.1.08l-.06-.04c.01.03.03.05.01.06-.03-.03-.1-.05-.1-.01l-.07-.06.1.1c-.1.02-.03.13-.13.1 0 0-.1.08.01.15-.06-.05-.1 0-.17-.05.06.06.1.16 0 .16h-.01c-.13.08.03.24-.1.3.08.03.02.06.12.1.06.15-.3.1.01.28 0 .06-.1.03-.12.04v-.02c-.01.1-.02.13-.05.2.02.05.16.1.1.16-.05-.04-.05-.01-.06.01 0-.02-.02-.03-.07-.02.02.01.02.02.03.03 0 .04.02.04.03.02.01 0 .02.01.04.01-.1.01-.04.1-.14.07-.02.12.05.25.05.36-.06-.01-.1-.05-.1-.1l-.01.07c-.07-.03-.03-.06-.03-.08-.15.03.05.2-.1.26l.05.04h-.01c.03.01.06.05.07.07-.07-.01-.15-.06-.16-.02-.08.01-.01.12 0 .18.02-.02.05 0 .07.02-.01.02-.08.01-.06.04l-.1-.03c.1.03.06.1.1.12-.07-.01-.04-.06-.1-.08-.03.1-.02.05-.05.14.05.08.1.03.15.08 0 .05.04.12-.03.15l.08.02c.03.1 0 .15-.1.17.38.87.8.5.8.5.23-.15.06-.37.1-.68z" fill="#fff"/><path xmlns="http://www.w3.org/2000/svg" d="M405.76 331.53v-.1c-.01.07-.01.1 0 .1zm-177.82-117.7h0l.01-.02zm17.56-9.3h.06l.32-.01-.38.01zm-25.6 2l-.3.01.3-.01zm10.9 4.88l-.07.07c.01 0 .04-.01.07-.07zm1.03-4.36l.85.06c-.01-.02-.23-.05-.85-.06zm32.9 1.96h0z"/><path xmlns="http://www.w3.org/2000/svg" d="M405.76 331.53v-.1c-.01.07-.01.1 0 .1zm-177.82-117.7h0l.01-.02zm17.56-9.3h.06l.32-.01-.38.01zm-25.6 2l-.3.01.3-.01zm10.9 4.88l-.07.07c.01 0 .04-.01.07-.07zm1.03-4.36l.85.06c-.01-.02-.23-.05-.85-.06zm32.9 1.96h0z"/><g xmlns="http://www.w3.org/2000/svg" fill="#fff"><path d="M333.92 111.06l-4.26 2.73c1.84-2.94.66-3.73.66-3.73s-6.8 2-8.5 3.4c-1.7 1.3-4.8 3.2-5 5.3s-.5 4-1.9 6.6-14.1 14.1-14.1 14.1l8.7 17.1 14.27-19.5 1.33-.9 6.1-4.6c1.6-1.2 10.68-17.3 10.68-17.3l-7.98-3.2z"/><path d="M339.72 109.76c-.9-.7-3.4-1.9-4.3-.3-.68 1.1.3 2.92 1.9 4.18l-1-.38c-1.2-.5-4.3-1-5 .7-.6 1.2.93 2.9 3.14 3.82l-1.44-.32c-1.1-.3-3.9-.5-4.2 1.3-.2 1.5 1.9 3.1 4.4 3.6 2.5.3 4.4 0 4.8-2 .2-.97-.64-1.6-1.68-2.02 2.2.52 3.78.44 4.68-1.28.36-.8-.14-1.5-.93-2.06 1.12.2 2-.2 2.73-1.34 1.1-1.7-2.1-3.2-3.1-3.9z"/><path d="M330.62 121.76c-1-.3-3.4-.4-3.7 1.2-.2 1.4 1.8 2.9 3.9 3.2 2.2.3 3.3-.2 3.7-2 .3-1.8-2.9-2.1-3.9-2.4zm-187.1 26.6c-6.1 4.7-6 5.2-11 18.8s-13.4 42.3-13.4 42.3-3.6 5.4-4 13.2-.04 8.54.1 9.65c.15 1.1 1.95.55 1.95.55s-.3 2.92.9 3.52c1.42.5 2.13-1.28 2.13-1.28s0 1.32 1.3 1.35c1.36-.13 2.06-2.37 3.07-4.4 1.2-2.43 3.43-7.5 3.83-8.4.4-1 .2 2.4.2 4.1 0 1.8 1.8 3.1 2.4 0s1.5-5.6 1.6-6.5.1-3 0-4.6l.1-1.3s-.2-1.2 1.5-4 19.9-30.4 22.8-34.3c3.8-5.2-8.2-32.7-13.5-28.7z"/></g><path xmlns="http://www.w3.org/2000/svg" d="M262.88 206.7l.02.04c0-.02 0-.03-.02-.04zm4.24 1.75l-.03-.35-.07-.68-.13-1.33-.25-2.8-.4-4.6c-.26-2.94-.56-5.92-1.18-10.66l-1.78-13.74c-.47-2.07-.77-5.8-1.3-8.25l-.02-.98c-.18-.84-.36-1.84-.42-2.7l.04.05c-.26-1.26-.43-2.7-.57-3.33l.04.05-.25-1.54.1.26c-.42-2.2-.8-4.5-1.08-6.5l-.12.2c-.56-4.33-1.14-5.85-1.7-9.76l.04.05c-1.36-4.8-1.33-7.77-2.93-12.68.2.6 0-.28.05-.24-.62-2.3-1.37-4.72-1.66-4.67-.5-1.66-.33-1.37-.3-1.62-.13.05-.62-1.37-1.1-2.64l.26.57c-.45-1.2-.93-2.42-1.48-3.6l.1.8c-.78-1.9.08-.6-.84-2.37l-.16.1-1.6-3.32c-.5-1-1.02-2-1.85-3.2-1.87-2.32-4.26-4.26-6.9-5.68-2.64-1.46-5.53-2.4-8.43-3-2.72-.55-5.46-.76-8.14-.72l-.1 1.6.05.25h.03l.78.04c.9-.23 3.03.04 3.72-.02.1.04 4.2.66 1.82.46-.2-.02-.56-.08-.53-.1l-.3.08c2.3.57 4.28.68 6.5 1.53-.65-.26-1.53-.56-.9-.43l1.03.36 1 .42-.46-.08c1 .42 1.97.9 2.9 1.44l-.33-.33c.67.43 1.12.72 1.55 1.08.45.33.93.65 1.68 1.13.7.4-1.1-1.04.27-.06.42.33.83.76 1.3 1.2.42.47.92.93 1.34 1.5.9 1.04 1.65 2.3 2.37 3.48-.02-.3.38.33.78.98l-.06.14c1.53 2.48.3 1.04 1.65 3.58l-.18-.2.55.6c1.22 2.34.32 1.4 1.6 4.03-.4-1.1.1-.6.5.77l-.23-.3c.28.74.4.98.53 1.5-.2-.43-.24-.2.12.92l-.37-.7a39.94 39.94 0 0 1 .83 2.05c.35 1.67 1.16 4.26 1.16 5l.43 1.9c.23 1 .5 2.1.7 2.5-.27-.7.12 1.3-.14.76.34.9 1.02 3.65 1.1 4.78l-.06-.2c.68 4.12 1.52 6.98 1.96 10.7.12-.2.35 1.78.46 1.27.8 3.8.7 7.06 1.48 8.37.28 1.75.16 2.1.26 3l-.1-.4.96 6.67c.22 1.2.5 1.37.73 3.56-.2-.7-.06.2.04 1-.08-.52-.14-.68-.07.4.05.15.1.38.15.6-.01.01-.01.05-.02.03.2 1.36.22 1.12.15.48.02.03.03-.03.04-.23.05 1.43.5 3.95.35 4.14.55 4.1 1.1 7 1.56 10.43-.05.4-.22-.4-.38-1.38l.32 2.42c-.14-.01-.24-1.4-.35-2.13.12 2.9.9 5.93 1.1 9.34l.18.7.01.2c.05-.02.2.74.3 1.24-.06.5-.27 0-.08 1.67.02.67.13 1.6.27 2.6l.03.2.02.08.03.17.07.36.02.1c-.01.02-.05.01-.07.01l-.16.02-.33.03c.5.02.4.08.17.13-.14 0-.23-.01-.37-.02l-.5-.03c-.3-.02-.6-.04-.92-.01l-.06-.12c-.12.12-2.25.13-2.54.2-.48-.12 1.3-.1 1.52-.2l-5.08.02c-1.8.12.33.15-.54.3-1.6.03-3.15.14-4.98.05l.58.14c-3 .1-4.8.1-6.8-.05l-2.9.16.26 1.46c7.5.18 12.1-.17 21.72-.27l2.75.01h.18c.02-.01.08.01.07-.01l-.03-.1z"/><path xmlns="http://www.w3.org/2000/svg" d="M242.16 207.34l2.9-.16c2.02.14 3.8.16 6.8.05l-.58-.14c1.83.1 3.4-.02 4.98-.05.86-.14-1.27-.17.54-.3l5.08-.02c-.2.1-2 .07-1.52.2.3-.06 2.42-.07 2.54-.2l.06.12c.33-.03.6-.01.92.01l.5.03h.37c.24-.04.32-.1-.17-.13l.33-.03.16-.02c.02-.01.06 0 .07-.01l-.02-.1-.07-.36-.03-.17V206l-.03-.2-.27-2.6c-.2-1.68.02-1.18.08-1.67-.07-.5-.23-1.25-.3-1.24l-.01-.2-.18-.7c-.18-3.4-.96-6.43-1.08-9.34.1.74.22 2.12.35 2.13l-.32-2.42c.15 1 .33 1.78.38 1.38l-1.56-10.43c.16-.2-.3-2.7-.35-4.14 0 .2-.02.26-.04.23.07.64.07.88-.15-.48.01.02.01-.02.02-.03-.04-.22-.1-.45-.15-.6-.07-1.08-.01-.93.07-.4-.1-.82-.24-1.7-.04-1-.22-2.2-.5-2.35-.73-3.56l-.96-6.67.1.4c-.1-.9.02-1.26-.26-3-.78-1.3-.67-4.56-1.48-8.37-.1.5-.34-1.46-.46-1.27-.44-3.73-1.28-6.6-1.96-10.7l.06.2c-.08-1.14-.77-3.88-1.1-4.78.25.54-.13-1.46.14-.76-.18-.4-.46-1.5-.7-2.5l-.43-1.9c0-.72-.8-3.32-1.16-5l-.83-2.05.37.7c-.36-1.1-.32-1.35-.12-.92-.13-.5-.25-.75-.53-1.5l.23.3c-.4-1.38-.88-1.86-.5-.77-1.3-2.64-.4-1.7-1.6-4.03l-.55-.6.18.2c-1.35-2.54-.12-1.1-1.65-3.58l.06-.14c-.4-.65-.8-1.27-.78-.98-.72-1.2-1.48-2.44-2.37-3.48-.4-.55-.9-1-1.34-1.5-.47-.43-.88-.86-1.3-1.2-1.36-.97.44.47-.27.06-.75-.47-1.23-.8-1.68-1.13-.44-.35-.88-.65-1.55-1.08l.33.33c-.93-.55-1.9-1.03-2.9-1.44l.46.08-1-.42-1.03-.36c-.6-.12.27.17.9.43-2.2-.85-4.18-.96-6.5-1.53l.3-.08c-.03.03.32.1.53.1 2.38.2-1.7-.43-1.82-.46-.7.06-2.8-.2-3.72.02l-.78-.04H223l-.05-.25.05-.8h-.5c-10.8.4 11.8 107.1 11.8 107.1h7.85l.01-.12z" fill="#fff"/><path xmlns="http://www.w3.org/2000/svg" d="M246.83 173.9l-.1-1.5c.04-.42.08-1.32.13-.57l-.1-2.44.13-1.5c.06-5.5-.27-10.2-.4-15.98.04-3.48-.18-8.5-.48-13.57a420.26 420.26 0 0 0-1.12-13.98c-.3-2.65-.5-5.38-.94-8.24-.48-2.86-1.53-5.73-3.17-8.26-1.65-2.53-3.88-4.7-6.52-6.2-1.4-.75-2.8-1.2-4.2-1.57-1.4-.37-2.8-.62-4.17-.77-.35-.1-1.3-.14-1.3-.1-2.3-.27-4.65-.38-7-.2-2.27-.1-4.52.02-6.7.3-3.8.5-7.4 1.44-10.82 2.33l-.65.03c-.32-.12-3.66 1.44-4.23 1.45l-1.53.62c-.45.1-1.4.4-.63.08-1.45.48-1.46.56-2.48 1l-1.6.45c-5.68 2.07-10.26 4.43-15.88 7.37-3.4 1.7-8.18 4.5-12.7 7.76l-3.35 2.5-3.15 2.56c-1.97 1.75-3.83 3.35-5.27 4.84-4.12 4.1-8.43 8.68-12.34 13.68-3.9 4.98-7.4 10.36-10 15.7a7.33 7.33 0 0 0-.38.75c-.13.27-.22.5-.2.5-1.66 3.23-3.23 6.5-4.64 9.85l-.85 2.02-1.96 5.06c-1.52 4.04-3.13 9.13-4.24 13.06l-.4 1.4c-.12.48-.25.82-.33 1.36-.15 1 .16 1.9.58 2.44.42.56.9.8 1.17.86.26.08.3.03.18-.1-.14-.14-.52-.38-.87-.96-.1-.15-.17-.33-.23-.52.24.55.66 1 1.2 1.24l6.13 2.62c-.01.02-.01.04-.02.06-13.78-5.1-3.9-.48-.35 1.15a60.68 60.68 0 0 0-.58 2.08l-.3.74c-.17.68-.38 1.48-.62 2.14l-.01-.05c-.25 1.02-.6 2.14-.73 2.65l-.01-.05-.33 1.17c-.01.01.01-.1.02-.16l-.04.14c0 .01 0 .02-.01.03l-.17.3-.34.63a36.98 36.98 0 0 0-.63 1.26c-.4.84-.74 1.68-1.06 2.46l.13-.1a21.62 21.62 0 0 0-1.21 4.05c-.25 1.17-.42 2.3-.62 3.92l-.02-.05a136.89 136.89 0 0 1-.21 5.27c-.05 1.6-.2 3.3.3 5.43-.1-.55-.02.22 0 .28.1.3.3.58.6.74.3.17.6.2.82.23.1.01.28.01.27 0h.07c.05-.01.1-.02.14-.04.03.14.02.12.08.62.05.35.12.57.18.57.1.75.26 1.06.3 1.2s.02.15.05.27c.06-.05.18.36.85.62a1.8 1.8 0 0 0 .98.02c.33-.07.7-.34.84-.47a2.04 2.04 0 0 1-.44.34 2.42 2.42 0 0 0 .39-.27c.1-.08.1-.1.14-.14.04-.05.08-.1.12-.18l.05-.1c.02-.03.03-.1.03-.03.01.12.05.25.13.35a1.67 1.67 0 0 0 .52.37c-.22-.14-.43-.4-.44-.5l-.01-.02c0 .01.01.02.01.02.05.08.24.25.37.33s.24.13.32.16c.12.04.2.08.28.1.07.01.4.22 1.2-.35l-.1-.08c.52-.4.82-.88 1.08-1.3s.48-.83.7-1.23l1.25-2.3 2.18-4.8.28-.63.07-.15c.01-.02.02-.05.04-.05.03.03.02.07.03.1.02.16.02.33.02.5v.9c-.02.6.08 1.4.53 2 .2.3.64.66 1.1.68.47.06.94-.32 1.15-.63.43-.62.54-1.27.66-1.84.22-1.13.5-2.24.8-3.34l.46-1.64.22-.84c.07-.28.12-.63.14-.9.08-1.15.08-2.24.07-3.34l.07-.4c.02-.03.02-.12.02-.24s-.03-.32-.03-.38v-1.33l-.01-.01a1.76 1.76 0 0 1 0-.33c.02-.12.04-.2.07-.25.05-.3.12-.6.2-.9.1-.24.36-.74.2-.3l.64-1.4c.18-.26.37-.53.57-.8.86-1.3 1.63-2.53 2.4-3.76l5.64 2.3c.23.1.83.37 1.4.38a3.02 3.02 0 0 0 1.66-.39c.5-.28.93-.74 1.2-1.27.27-.62.3-.9.42-1.26.42-1.43.94-2.97 1.53-4.6 2.2-5.68 4.02-9.1 5.9-12.5 1.95-3.37 3.97-6.78 7.8-11.75 3.72-4.67 8.3-9.17 13.16-12.35.54-.43 1.26-.83 2.02-1.3.78-.45 1.58-.97 2.5-1.4a144.63 144.63 0 0 0 5.11-2.64l1.2-.45a13.92 13.92 0 0 1 .77-.41c-1.63 6.12-2.7 9.84-4.8 18.5l-4.1 16.5c-.43 2.56-1.77 6.94-2.37 9.95l-.42 1.12c-.2 1.03-.48 2.24-.82 3.25l-.02-.07c-.16.77-.38 1.57-.57 2.28-.2.72-.36 1.4-.43 1.8l-.02-.08c-.1.68-.26 1.33-.3 2.05l-.02-.37c-.05.76-.08 1.54.1 2.4.1.82.57 1.75 1.24 2.4.68.68 1.5.96 2.22 1.2a13.17 13.17 0 0 0 2.09.37l-.2-.16c1.4.17 2.54.17 3.56.18a80.27 80.27 0 0 0 2.81-.06c1.77-.07 3.46-.15 5.88-.13l-.06.04c6.08-.6 9.65-.1 15.92-.77-.78.1.34.06.28.1 2.9-.2 5.98-.4 6-.68 2.1-.13 1.72-.02 2 .07-.02-.13 1.8-.28 3.45-.42l-.75.1 4.7-.4-.95-.15c2.5-.15.66.24 3.05-.05l-.05-.2 4.5-.34c1.38-.14 2.8-.3 4.5-.93a14.43 14.43 0 0 0 4.64-3.14c1.34-1.33 2.4-2.9 3.28-4.54 1.7-3.32 2.6-6.92 3.16-10.48.56-3.57.75-7.1.98-10.55l.52-10.06.15-.57c.33-.26-.16-3.6.05-4.1zm-111.65 35.17c-.62 1.02-.9 1.33-1.15 1.66-.25.33-.54.67-1.05 1.86-.17.3-.34.6-.5.9-.18.5-.2.72-.23.93l-.03.35c0 .14-.03.26-.02.53-.01.07-.02.15-.03.25-.06-.08-.17 1.5-.17.8a2.84 2.84 0 0 0-.02.58l.02.5.03 1a48.08 48.08 0 0 1 .02 2.09c-.01.37-.02.68-.1 1a13.69 13.69 0 0 1-.28 1.1l-.72 2.42c-.04.4-.18 1.02-.3 1.62-.12.62-.23 1.2-.25 1.43-.02.02-.1.22-.2.45-.1.25-.27.44-.34.45-.1.04-.18 0-.18-.02-.01-.03.05.02.15-.06.03-.02.07-.07.1-.08l.02-.16c-.05.04-.1.13-.12.13-.01.01-.03.01-.04.01-.03 0-.05-.01-.06-.02.01.02-.12-.12-.18-.23a1.93 1.93 0 0 1-.18-.44c-.1-.3-.08-.68-.1-1.26l.01-2.5c-.01 1.02-.05 2.4-.08 1.52.03-1.03.05-2.2-.17-2.53.05.04.1.1.16.18-.14-.43-.25-.6-.47-.75-.13-.04-.15-.05-.2.03l-.17.33-.34.65.18-.28c-.64 1.24-.9 1.58-1.65 3.16-.32.7.64-1.13-.04.25l-1.6 3.02-.92 1.72c-.3.56-.55 1.1-.8 1.62.17-.16-.1.4-.35.96l-.1.03c-.5 1.04-.7 1.06-.83 1.16-.07.03-.14.07-.26.12-.06.02-.12.06-.2.06.04.02-.16 0-.25-.03h.1c-.05.01-.1.02-.14.02h-.07c-.01-.01-.02.01-.04-.01l-.08-.1a.56.56 0 0 1-.09-.22c-.08-.02-.14-.03-.2-.05l2.78-8.54a.51.51 0 0 0-.32-.63c-.26-.1-.54.06-.63.32l-2.8 8.6v.04c-.07-.01-.14-.01-.22-.03-.13.27-.45.62-.54.67-.14.1-.26.2-.56.18.27.05.33.03.25.1-.04.03-.13.05-.27.03-.08-.02-.12-.01-.16-.05-.06-.02-.12-.1-.18-.17.06.04.12.06.17.08-.27-.26-.36-.5-.44-.84.14.3.1.17-.02-.68.05.2.1.38.17.55-.12-.52-.23-.85-.2-1.93 0-.01.01-.01.01-.02l1.56-7.25c.06-.27-.1-.54-.38-.6-.28-.06-.54.1-.6.38l-1.48 6.88c-.01 0-.02.01-.04.01-.16.03-.34.06-.5.06-.1 0-.15 0-.22-.01-.15-.02-.17-.03-.22-.06-.04-.03-.07-.08-.08-.13-.1-.65-.2-1.25-.15-1.5 0 0-.05-.72-.06-1.55-.02-.83-.02-1.75-.06-2.1.06.6.12-1.05.2-.58-.06-.77-.03-3.08.1-4v.17c.3-3.3.66-5.7 1.78-8.48-.14.1.5-1.36.25-1.04a16.4 16.4 0 0 1 .92-2.02c.17-.3.33-.6.5-.87.08-.13.17-.26.25-.4.06-.08.14-.2.17-.33l.07-.23c.36-1.14.63-2.04.63-2.64.4-1.4.56-1.62.8-2.33l-.08.33 1.08-3.7.04.02c5.35 2.46 9.45 4.2 13.84 5.98l.35.14c-.52.76-.96 1.4-1.28 2z"/><path xmlns="http://www.w3.org/2000/svg" d="M345.92 102.53c-.26-.7-.84-1.18-1.58-1.34l-4.8-1c-.14-.03-.3-.06-.5-.06-.63 0-1.2.28-1.6.8l-7.34 8.4-.74.24-.6.2-1.26.46-2.94 1.14c-1.1.43-1.98.8-2.78 1.3l-1.94 1.34-1.9 1.5c-.33.32-.7.67-1.02 1.13s-.68 1.02-.82 1.8c-.04.2-.06.36-.07.48l-.05.42-.1.84c-.08.55-.2 1.1-.33 1.64a14.42 14.42 0 0 1-1.19 3.05c-.27.85-1.7 2.17-2.45 3.13l-.38.3c-.27.33-.6.7-.94 1v-.03c-.4.5-.95.98-1.16 1.22v-.03l-.55.55.08-.1c-.76.83-1.6 1.63-2.35 2.3h.12l-3.62 3.36v-.03a1.21 1.21 0 0 1-.16.16l-.05-.05c-.4-.36-.6-.67-1.16-1.06a2.79 2.79 0 0 0-1.69-.44c-.3.02-.62.08-.93.2-.3.1-.66.37-.83.5-.82.72-.78 1.03-2.33 2.17.42-.47-.18.03-.75.48.35-.3.44-.42-.35.1-.08.1-.23.25-.37.38-.01 0-.04.02-.04 0-.92.77-.74.67-.3.33-.01.03.04.02.2-.07-1.06.66-2.73 2.15-2.96 2.1l-7.14 5.77c-.33.12.2-.35.87-.9l-1.7 1.27c-.06-.12.94-.77 1.46-1.17-2.17 1.25-4.04 3.44-6.84 3.65-.18.08-.36.1-.55.16l-.16-.01c.01.07-.6.14-1.02.12-.2-.1-.17-.15-.28-.22s-.33-.12-.98-.3l-1.96-.8c-.74-.35-1.52-.77-2.13-1.2.63.5.4.4.08.22-.58-.43-.84-.76-1.3-1.1l.05-.17c.1.32-1.52-1.12-1.75-1.27-.22-.36.9.7 1.08.75l-1.56-1.5-.24-.24-1.1-1.34c-2.07-2.02-3.9-4.6-5.4-7.1l-.55-2.2-.28-.6-.04-.2c-.05.02-.32-.64-.47-1.08-.01-.46.27-.04-.18-1.55-.22-1.22-1.08-3.37-1.65-4.9.25.85.1.6-.05.25-.25-.75-.27-1.22-.55-1.77l.1-.1c-.15-.06-.9-1.92-1.04-2.15-.06-.46.54 1.1.7 1.26l-1.9-4.37c-.83-1.48 0 .34-.47-.33l-2.36-4.02.17.53-1.08-1.57-2.68-3.54c-1.22-1.17-2.33-2.06-3.33-2.74-2-1.56-3.6-2.28-4.37-2.57-.17-.36-.28-.43-.3-.1l-.24-.07.14.56c-.34-.05-.6-.05-.73-.03l.12.26c.07.04.15.07.24.1l.53.28.14 1.1.82.53c.7.4-1.1-1.04.27-.06.42.33.83.76 1.3 1.2l1.34 1.5c.9 1.04 1.65 2.3 2.37 3.48-.02-.3.38.33.78.98l-.06.14c1.53 2.48.3 1.04 1.65 3.58l-.18-.2.55.6c1.22 2.34.32 1.4 1.6 4.03-.4-1.1.1-.6.5.77l-.23-.3.53 1.5c-.2-.43-.24-.2.12.92l-.37-.7.83 2.05 1.16 5 .43 1.9.7 2.5c-.27-.7.12 1.3-.14.76.34.9 1.02 3.65 1.1 4.78l-.06-.2c.68 4.12 1.52 6.98 1.96 10.7.12-.2.35 1.78.46 1.27.8 3.8.7 7.06 1.48 8.37.28 1.75.16 2.1.26 3l-.1-.4.96 6.67c.22 1.2.5 1.37.73 3.56-.2-.7-.06.2.04 1-.08-.52-.14-.68-.07.4.05.15.1.38.15.6-.01.01-.01.05-.02.03.2 1.36.2 1.12.15.48.02.03.03-.03.04-.23.05 1.43.5 3.95.35 4.14.55 4.1 1.1 7 1.56 10.43-.05.4-.22-.4-.38-1.38l.32 2.42c-.14-.01-.24-1.4-.35-2.13.12 2.9.9 5.93 1.08 9.34l.18.7.01.2c.05-.02.2.74.3 1.24a1.97 1.97 0 0 1-.03.15l.28 1.45.6 3.2.13 1.45-.67.33.23 1.05c.17.72.26 1.14-.14.03-.06-.2-.14-.54-.1-.52l-.18-.24c.32 2.2 1.14 4.05 2.47 5.97-.35-.55-.63-1.08-.3-.64.4.66.86 1.28 1.38 1.84-.14-.08-.27-.2-.4-.3.75.9 1.63 1.65 2.57 2.28l-.3-.37c.66.5 1.1.82 1.6 1.14.5.3 1.05.6 2 .82.44.08.05-.08-.2-.2-.24-.15-.4-.2.45.05.27.1.55.2.88.26.3.08.66.14 1.03.15.73.04 1.63-.03 2.47-.57.85-.53 1.38-1.53 1.5-2.43.14-.92.01-1.76-.23-2.5-.02.16-.1.04-.2-.22-.1-.22-.18-.52-.28-.84l.1-.1c-.83-2.58.01-1.02-.75-3.64l.14.22-.42-.65c-.8-2.36-.05-1.36-1-3.97.26 1.06-.15.56-.4-.76l.2.3c-.2-.72-.3-.95-.38-1.44.16.42.22.2-.04-.87l.3.68-.67-1.97c-.22-1.6-.94-4.02-.9-4.7 0 0-.13-.66-.3-1.46.25-.1.45-.2 1.18-.38-.05.12 1.6-.38.9-.07 2.9-.76 5.47-2.43 8.9-4.1.6-.6 2.32-1.5 2.74-1.97.13.02 3.22-2.08 1.53-.74-.15.1-.42.3-.42.25l-.15.24a14.71 14.71 0 0 0 1.36-.79c.42-.3.8-.6 1.2-.9.8-.6 1.52-1.28 2.38-1.94-.53.36-1.2.9-.8.48l1.6-1.22-.26.34c.8-.6 1.55-1.25 2.33-1.87l-.4.17c1.16-.9 1.66-1.1 2.76-2.33.48-.57-1.14.8-.03-.26 1.47-1.27 3.65-3.2 5.38-5-.26.07.2-.4.65-.93l.15.03c1.66-2.04.86-.53 2.5-2.54l.18-.46c1.36-1.94 1.05-.77 2.48-3-.65.8-.52.2.34-.74l-.12.32c.44-.55.55-.76.86-1.1-.22.36-.01.28.64-.53l-.33.63 1.07-1.65c1.05-1.1 2.4-3.07 2.9-3.46 0 0 2.04-2.54 2.32-3.25-.3.6.8-.82.6-.33.03-.07.14-.24.25-.47.1-.22.2-.48.27-.75.12-.56.1-1.2-.1-1.82a3.43 3.43 0 0 0-.42-.86c-.1-.13-.2-.26-.3-.37-.08-.08-.15-.16-.22-.24-.26-.28-.5-.54-.63-.74l.14.12c-1.1-1.2-2.1-2.2-3.08-3.14l1.26-1.64.2-.14c.16-.01.7-1.3.92-1.38l.32-.53c.12-.13.36-.4.2-.14.34-.46.33-.48.54-.83l.43-.45c1.38-1.78 2.38-3.4 3.8-5.3l.5-.62c.15-.2.32-.4.5-.63l.88-.58c.34-.22.66-.47 1-.72l2.02-1.57 1.95-1.54.9-.7c.28-.24.54-.4.82-.7.77-.94 1.33-1.86 2-2.83l1.94-2.93c1.3-1.97 2.56-3.98 3.58-5.95a2.35 2.35 0 0 0 .23-.46l.5-.85c.5-.28.9-.72 1.2-1.4.23-.3.28-.68.2-1l.14-.24.43-.75.13-.23c.44-.28.8-.64 1-.96.3-.4.4-.9.3-1.3-.26-1.03-1.4-1.9-2.34-2.5l4.55-5.6c.4-.64.5-1.43.24-2.13zm-9.72 20.37c-1.13 1.96-2.83 4.63-3.5 5.92l.03-.1c-.36.75-.58.9-1.06 1.66-.04.03-.08.08-.08.07a3.29 3.29 0 0 1-1.11 1.18c-.5.38-1 .74-1.3.98l-.08-.03-1.43 1.1.54-.4c-.08.3-1.15.73-2.12 1.6-.42.3-.8.67-1.17 1.05-.4.36-.77.7-1.24 1.04-.13.2-.23.32-.36.48-.3.54.2-.5-.28.26-.1-.03.2-.38 0-.23-.5.74-.94 1.12-1.53 2.04l-.1-.01c-.73 1.23-1.67 2.12-2.13 2.96-.82 1.22-.76.67-1.55 2l-.43.42c-.4.52-.18.45-.65 1-.03-.07-.58.7-.38.33-.54.66-1.03 1.38-1.56 2.15-.94-.9-1.86-1.82-2.8-2.88 0 .2-1.15-1.1-1-.65-2.5-2.3-4.06-4.7-5.32-5.17-1.1-1.08-1.18-1.4-1.72-2l.28.24c-.1-.1-.2-.2-.3-.3 1.42-1.26 2.35-2.36 3.7-3.5-.12 0 .63-.66.38-.57 1.34-1.43 2.72-2.33 2.98-3.07.62-.64.8-.7 1.14-1l-.14.16 2.3-2.52c.37-.53.35-.64 1-1.63-.13.35.1-.06.28-.44-.12.24-.13.33.16-.15.02-.08.06-.2.1-.3.01 0 .02-.02.02-.01.27-.66.2-.55.06-.25 0-.02-.02 0-.08.1.4-.63.73-1.9.85-1.97.3-1.04.4-1.95.47-2.8.03-.42.04-.87.1-1.2.08-.35.25-.7.47-1.05.16-.1-.05.22-.22.63.14-.33.36-.64.6-.94.05.06-.37.54-.5.85.72-1.06 1.77-2.2 3.2-3.13l.25-.26.1-.05c-.02-.02.26-.3.46-.45.23-.08.1.1.75-.36.52-.3 1.57-.9 2.37-1.26-.43.17-.3.08-.13-.02.4-.16.64-.18.93-.33l.07.07c-.2-.03 1-.47 1.13-.56.25-.01-.6.28-.67.36 1.58-.58.8-.3 2.4-.84.84-.35-.18-.03.2-.25l1.23-.44.12.14-.01.02c-.01.03-.02.05-.03.08-.01.05-.01.1-.01.1-.1.37.1.76-.17 1.57-.36.66-.6.78-1 1.44-.23.3-.46.62-.7.9-.03.22-.35.34-.43.57h-.1c-.03.08-.08.15-.16.17l-.01-.02c-.05.1-.16.17-.2.22l-.01-.02-.1.1v-.04c-.12.16-.27.3-.43.37l.06.06c-.36.14-.37.37-.72.46h-.01c-.24.43-.66.23-.93.64.03-.05-.04-.03-.05-.05-.17.12-.35.23-.28.4-.13.07-.13.01-.18-.04.04.07-.07.15-.17.2l.04-.05-.3.17.12.1c-.18.04-.1-.14-.25-.03l.05.1c-.13.05-.3.07-.45.08-.1.08-.27.24-.4.37-.5.88-.72 2-1.32 2.74h-.1c-.12-.04.05.32-.07.3v.13c-.03.02-.08.06-.1 0-.05.1-.03.1-.03.18l-.12.06c-.23.33-.25.7-.47 1.07-.17.18-.33.47-.5.78l-.55 1.17c.01.04.03.07.04.1.04.1.07.17.08.26.01.04.01.1.03.13.03.01.06.02.1.04.12.08.25.23.42.47.3.22.43.32.58.46.15.13.32.25.5.34.01.03.08.04.1.03.17.15.32.32.5.5 0 0 .57.62 1 .97.42.34.8.37.32-1.03h.03c-.2-.36-.4-.56-.7-.66.1-.15-.23-.25-.26-.36h.02c-.28-.07-.32-.44-.6-.5.02 0 .05-.04.1 0-.15-.1-.4-.2-.34-.3l-.3-.18c-.12-.07-.13-.07-.2-.1-.06-.02-.13-.02-.27.01H321l.05-.02c-.24.07-.04-.03-.1-.06.02-.01.03-.01.04-.02-.04-.01-.03-.05-.01-.1.04-.06.1-.12.1-.16l.07.02.03-.07.05-.1 5.24 1.62.05.02.05.01c.18.04.37.06.55.06a2.18 2.18 0 0 0 1.31-.42 6.16 6.16 0 0 0 2.44.88c.4.1.8.1 1.2.1 1.3 0 2.6-.5 2.9-2.5.14-.66-.07-1.14-.46-1.5.12.01.24.01.36.01.55 0 1.14-.07 1.7-.27-.2.24-.3.4-.36.4zm-5.58-.74c.2.1.4.1.7.2 1.5.4 3.1.8 2.9 1.8-.3 1.4-.9 2.1-3.2 1.7-1.4-.2-2.7-1-3.3-1.8-.2-.3-.4-.6-.3-1 0-.3.2-.5.4-.8.8-.4 2.1-.3 2.8-.1zm-9.44 2.33l-.04.05c-.03-.03-.03-.05-.02-.07l.06.02zm12.14-2.63c-1.5-.2-3-.9-3.7-1.9-.2-.3-.4-.7-.3-1.1 0-.4.2-.6.5-.8.4-.3 1.1-.4 1.7-.4.5 0 1 .1 1.5.2.2.1.4.1.7.2l.5.13a7.11 7.11 0 0 0 1.1.37c.3.1.63.17.94.25.55.22 1.02.5 1.26.85.1.2.1.4.1.6-.2 1-.9 2.1-4.3 1.6zm5.02-2.24a2.26 2.26 0 0 0-.17-.56h.06c.17 0 .34-.01.5-.02-.13.2-.26.4-.4.58zm2.18-2.66c-.53 1.15-1.42 1.53-3.1 1.3-.98-.67-2.52-.96-3.6-1.2-.06 0-.1-.01-.15-.02-.92-.54-1.64-1.2-1.95-1.88-.2-.4-.2-.7-.1-1 .7-1.4 3.5-.8 4.4-.4.2.1.3.1.5.2l1.24.47a7.22 7.22 0 0 0 .36.23c.44.27.86.44 1.26.57.55.34 1 .72 1.14 1.13.1.2.1.4 0 .6zm2-4.4c.1.3 0 .5-.1.7-.72 1.2-1.57 1.5-2.9 1-.46-.27-.96-.5-1.43-.7-1.24-.8-2.2-1.88-2.47-2.9-.1-.3-.1-.8.1-1.1s.5-.4.8-.5h.4c.9 0 2 .5 2.5.9.2.1.4.2.7.4.8.5 2.2 1.4 2.4 2.2z"/><g xmlns="http://www.w3.org/2000/svg" fill="#fff"><path d="M203.26 220.25c0-.02-.04-.03-.14-.03l.14.03zm5.28.87h0c-.02 0-.03.01-.04.01l.04-.01zm11.6-2.37h0l.04-.06z"/><path d="M243.67 206.2c-.17.07-.48.65-1.3 1.88l-.01-.05c-.4.76-.68 1.22-.86 1.8-.2 0-.38.6-.55.73v-.02c-.17.52-.7.82-.94 1.28 0-.02-.03-.06.04-.16-.2.3-.5.7-.6.66-.56.68-1.5 1.46-1.84 1.93v-.04c-.2.28-.33.26-.58.52-.02 0-.05.01-.05 0-.2.32-.84.6-1.06.77l-.05-.05-.6.37.23-.12c.01.2-.5.18-.92.5-.44.17-.72.78-1.23.87-.2.16.15-.2-.17-.02-.04-.1.14-.1.02-.15-.32.16-.57.1-.96.3l-.04-.07c-.48.33-1.03.2-1.36.42-.55.2-.43-.13-.98.15l-.25-.05c-.25.04-.16.16-.45.16.01-.07-.37.01-.2-.08-.66 0-1.3.37-2.17.32-.17.15-.6.13-.74.25-.03-.05-.86.1-.4-.07.04-.02.1-.02.1 0l.05-.08c-.5-.07-.87.2-1.36.24.15.01.34-.02.22.04l-.45.04.1-.07-.67.04.1.07c-.33 0-.46-.12-.82.03-.16.08.32.07-.02.13l-1.68.03c.06.08-.1.1-.24.13l-.03-.07c-.6.16-.24-.14-.82 0l-.1.1c-.52.2-.3-.12-.88.13.23-.03.13.15-.17.15l.07-.08c-.16.03-.2.06-.32.06.1-.05.04-.1-.2-.08l.15-.1-.43.17c-.35-.05-.9.1-1.04.01 0 0-.74.02-.9.14.14-.08-.27-.08-.16-.17-.2.1-.75.2-.98.13l.04-.01c-.84-.02-1.42.23-2.18.18.04.08-.36.06-.25.17-.77.16-1.43-.13-1.7.23-.35.04-.43-.05-.6-.06l.08-.02-1.35.1c-.24.05-.27.2-.72.2.14-.07-.04-.05-.2-.04.1-.02.14-.04-.08-.07-.03.02-.08.04-.12.05 0 0-.01-.01-.01-.02-.27.04-.23.05-.1.06-.01.01.01.02.05.04-.3-.07-.8.05-.84-.06-.83.07-1.4.22-2.1.3-.08-.05.08-.1.28-.14l-.5.04c0-.08.28-.06.43-.08-.6-.1-1.2.2-1.9.1l-.14.07-.04-.01c0 .03-.15.1-.25.1-.1-.07 0-.16-.34-.14-.27-.06-.76.07-1.1.12.2 0 .13.05.05.07-.17.01-.27-.06-.4-.02l-.02-.1c.07.1-.44.1-.5.16-.1-.07.26-.07.3-.12l-1.02.05c-.36.1.07.1-.1.18-.32.03-.63.1-1 .07l.12.08c-.6.1-.96.1-1.37.02-4.46.82-.92.96-.92.96 1.77.13 2.68-.15 4.78-.3 1.85-.04 2.35.1 4.26-.06l2.78-.2c.42-.15 1.17-.07 1.67-.2l.2.06c.17-.05.37-.08.55-.06v.02c.25-.07.55-.06.67-.1l-.01.02.3-.03-.05.03a6.82 6.82 0 0 1 1.32-.12l-.04-.08c.88.04 1.2-.17 1.98-.1v.02c.98-.3 1.6.04 2.6-.27-.13.04.06.04.05.06.47-.07.97-.12.97-.3.34-.03.3.03.34.1-.01-.08.3-.13.56-.16l-.12.04.77-.1-.16-.13c.4 0 .12.16.5.1v-.12c.57-.03.92.1 1.47.14l6.8-.96.1.07c.06.12.55-.28.65-.18.08-.03.16-.07.23-.1.07.01.22 0 .1.05.23-.05.23-.07.4-.15l.26.02a8.26 8.26 0 0 0 1.28-.32l1.28-.48c.6-.08 1.36-.46 2.12-.85.75-.42 1.47-.92 1.96-1.32 1.35-1.12 3.2-2.24 4.14-3.88.05-.03.1-.2.1-.2l.92-1.4s.28-.43.55-1.04c.3-.6.57-1.38.73-2 .15-.58.15-1.05-.02-.98zm-48.52-49.77l.14-.02c-.01-.02-.05-.02-.14.02zm5.25-.8h-.01l-.03.02z"/><path d="M200.38 155.62c.33-.27 1.05-.42 1.46-.7h.2c.14-.1.3-.2.48-.2v.02c.2-.14.48-.2.6-.3v.02l.28-.12-.04.05a7.76 7.76 0 0 1 1.17-.5l-.06-.07c.82-.22 1.04-.5 1.8-.67v.02c.8-.57 1.47-.4 2.3-.98-.1.07.07.02.06.05.4-.2.86-.38.8-.54.3-.12.27-.05.34 0-.03-.07.23-.2.47-.3l-.1.07.68-.3-.2-.08c.38-.1.16.12.5-.05l-.05-.1c.52-.18.88-.13 1.4-.24l6.1-2.5.12.05c.1.1.45-.4.57-.3l.2-.15c.07-.01.2-.04.1.03.2-.1.2-.1.33-.2l.25-.02c.82-.3 1.44-.74 2.27-1.1 1.07-.3 2.85-1.4 3.86-2.04 1.38-.97 3.33-1.5 4.68-2.6.06-.01.16-.13.15-.14l1.33-.84s1.6-1.05 2.48-1.86c.88-.84 1.08-1.25-1.55-.01v-.04c-.73.43-1.2.72-1.6 1.15-.17-.1-.6.37-.8.43l.01-.02c-.37.4-.96.48-1.33.84.01-.02-.01-.07.1-.13-.3.2-.7.5-.78.43-.73.47-1.8 1.03-2.22 1.44v-.04c-.23.25-.35.2-.64.44h-.05c-.25.26-.9.5-1.1.66l-.05-.05-.6.33.24-.1c.01.2-.52.13-.9.47-.43.2-.68.78-1.16.9-.17.18.12-.2-.16 0-.05-.08.12-.12.01-.15-.3.2-.55.15-.9.4l-.05-.06c-.44.36-.98.34-1.26.6-.5.3-.44-.05-.9.32H219c-.24.1-.12.18-.4.25-.01-.07-.34.1-.22-.03-.62.15-1.12.63-1.96.78-.12.18-.54.27-.63.4-.04-.04-.8.3-.4.02.03-.02.1-.05.1-.03l.03-.1c-.5.05-.78.4-1.22.54.14-.03.3-.1.2-.01l-.4.15.06-.1-.62.2.1.04c-.3.08-.46 0-.76.23-.13.12.32-.02.01.13l-1.56.45c.08.06-.06.1-.2.18l-.04-.06c-.5.3-.26-.07-.76.2l.03-.07-.08.2c-.43.33-.32-.04-.78.36.2-.1.16.1-.1.2l.04-.1c-.14.07-.18.12-.28.14.07-.07.01-.12-.2-.02l.1-.14-.35.28c-.34.05-.8.33-.96.3 0 0-.68.22-.8.38.1-.12-.27 0-.2-.1-.14.14-.63.4-.86.4h.04c-.8.22-1.25.62-1.96.8.06.07-.3.17-.18.23-.66.38-1.36.3-1.5.7-.3.14-.4.07-.58.12l.07-.05-1.2.5c-.2.12-.2.28-.6.4.1-.1-.05-.03-.2.02.1-.05.1-.08-.1-.04-.02.03-.06.06-.1.08-.25.1-.2.1-.08.07 0 .01.01.02.05.02-.3.03-.7.3-.8.2-.74.32-1.23.63-1.83.92-.1-.02.04-.13.2-.22l-.43.2c-.03-.08.24-.14.37-.2-.57.1-1.03.55-1.7.68l-.1.1h-.04c.01.03-.1.13-.2.17-.1-.03-.05-.15-.36-.03-.26.03-.67.3-.97.46.17-.06.13 0 .07.05-.15.06-.26.03-.37.1l-.05-.08c.1.06-.36.25-.4.3-.1-.03.2-.15.23-.2l-.9.37c-.3.2.1.06-.03.2-.28.13-.54.3-.9.38l.13.04c-.52.27-.84.4-1.24.46-3.77 2.22-.5 1.2-.5 1.2 1.65-.45 2.38-1 4.24-1.8 1.67-.6 2.17-.64 3.86-1.38.8-.28 1.66-.66 2.45-1zm72.8 30.7v-.14c-.01.01-.02.04 0 .14zm-.16-5.46c.01.02.01.03.02.04l-.02-.04z"/><path d="M275.92 192.27c-.25-1.75-.7-2.57-1.28-4.58-.4-1.8-.37-2.3-.9-4.14l-.72-2.67c-.23-.38-.3-1.13-.5-1.6l.02-.2c-.08-.16-.15-.35-.15-.52v.01c-.12-.24-.15-.52-.2-.64v.01l-.1-.3.04.04c-.17-.42-.28-.87-.35-1.27l-.08.05c-.12-.87-.37-1.13-.45-1.92l.02.01c-.46-.9-.23-1.56-.7-2.5.06.12.03-.06.05-.06-.14-.45-.27-.94-.44-.9-.08-.33-.02-.28.04-.34-.07.02-.18-.26-.25-.52l.06.1-.2-.74-.1.18c-.06-.4.14-.14.01-.5l-.1.03c-.12-.55-.02-.92-.07-1.47l-1.7-6.6.06-.1c.1-.07-.33-.52-.23-.62l-.12-.22c.01-.07-.01-.22.05-.1-.05-.22-.07-.22-.15-.37l.02-.26c-.16-.88-.5-1.58-.7-2.5-.12-1.14-.78-3.16-1.17-4.33-.6-1.62-.6-3.7-1.24-5.35 0-.06-.07-.2-.1-.2l-.38-1.57s-1.86-7.6-1.44-1.58l-.04-.03c.15.87.27 1.42.56 1.97-.14.14.16.7.16.92l-.02-.02c.26.5.16 1.1.4 1.58-.02-.02-.07-.02-.1-.13.1.36.28.86.2.9.25.87.5 2.1.8 2.63l-.04-.03c.2.3.12.4.26.76-.01.02-.01.05-.01.05.2.32.27 1 .4 1.3l-.06.03.2.7-.05-.26c.2.05.02.55.26 1.03.1.48.6.86.65 1.38.14.2-.2-.17-.04.16-.1.03-.1-.15-.15-.04.13.33.05.6.22 1l-.07.04c.27.52.17 1.06.4 1.4.2.55-.12.44.17 1l-.04.25c.05.26.17.15.2.44-.07 0 .04.37-.06.22.06.66.46 1.26.5 2.14.17.15.2.6.32.7-.05.04.2.85-.03.4-.02-.04-.04-.1-.01-.1l-.1-.04c-.01.5.3.85.4 1.33-.01-.15-.06-.33.02-.22l.1.44-.08-.08.13.66.05-.1c.04.33-.06.47.14.8.1.15.02-.33.13 0l.26 1.65c.07-.07.1.08.16.22l-.07.04c.25.55-.1.25.12.8l-.06-.04.2.1c.27.48-.08.32.26.85-.07-.23.13-.15.17.14l-.1-.05c.05.15.1.2.1.3-.06-.08-.1-.02-.04.2l-.13-.13.24.4c.01.35.24.86.17 1.02 0 0 .13.73.28.87-.1-.13-.03.27-.14.18.12.17.32.7.3.94l-.02-.04c.12.83.46 1.36.55 2.12.08-.05.13.34.2.22.3.73.13 1.43.53 1.62.1.34.02.43.05.6l-.04-.08.35 1.3c.1.23.26.23.33.67-.1-.12-.04.05 0 .2-.04-.1-.07-.13-.05.1.03.02.05.07.07.1.08.27.1.22.06.1.01 0 .02-.01.03-.05-.01.3.2.77.1.83.23.8.48 1.34.7 2-.04.1-.12-.06-.2-.24l.14.47c-.08.02-.1-.26-.17-.4.02.6.42 1.13.47 1.82l.1.12v.04c.03-.01.1.13.15.22-.04.1-.16.03-.07.36 0 .28.22.73.34 1.06-.03-.2.02-.14.06-.06.04.16 0 .27.06.4l-.1.04c.07-.1.2.4.25.46-.04.1-.12-.24-.18-.27l.26.98c.16.33.07-.1.2.06.1.3.24.6.27.96l.05-.13c.2.57.3.9.3 1.33 1.75 4.15 1.13.68 1.13.68zm-10.96 18.9h0l-.01-.01z"/><path d="M270.1 216.67c-.1-.13-.16-.2-.33-.13.08-.15-.1-.1-.1-.16v-.01c-.16.05-.1-.2-.23-.18.01-.01.04-.04.06-.03-.07-.03-.16-.06-.1-.14-.14-.1-.27-.28-.46-.25l.03-.01c-.12.03-.07-.05-.15-.06.01-.01.01-.02.01-.02-.12.02-.14-.14-.2-.15l.05-.05-.1-.1.02.05c-.15.1.02-.15-.13-.16-.04-.1-.42.1-.4-.05-.1.01.14-.05.04-.07.07-.06.07-.01.12-.07-.08-.03.01-.15-.1-.18l.06-.05c-.17-.01-.04-.22-.2-.2-.1-.06.14-.2-.05-.2l.06-.1c-.01-.05-.12.04-.1-.03.05-.03 0-.1.07-.1.01-.16-.26-.14-.2-.37-.12.03-.1-.07-.2-.05.04-.03-.08-.15.07-.13.01 0 .02.01 0 .02l.07-.03c.07-.15-.15-.1-.18-.2-.01.04.02.07-.04.07l-.03-.08.06-.01-.03-.13-.06.05c0-.07.1-.16-.02-.17-.07 0-.06.1-.1.05 0-.1.01-.25-.02-.35-.07.05-.08.02-.1 0l.06-.04c-.14-.05.13-.1 0-.18l.05-.01-.15.04c-.18-.03.1-.12-.12-.13.03.03-.14.1-.13.03l.07-.02c-.03-.02-.06-.02-.05-.04.04 0 .1-.04.07-.07l.1-.01-.16-.02c.04-.1-.1-.15-.01-.2 0 0-.02-.15-.13-.13.07 0 .07-.1.15-.1-.1 0-.2-.08-.13-.15h.01c.01-.18-.22-.2-.18-.38-.08.04-.06-.05-.16.01-.16-.1.1-.34-.23-.26-.04-.06.04-.1.05-.15h.02c-.07-.1-.1-.14-.12-.24-.05-.03-.2.02-.2-.08.07 0 .05-.02.03-.05.02.02.04.01.07-.04-.02 0-.03 0-.05-.01-.03-.05-.04-.04-.04-.01-.01 0-.02.01-.03.02.06-.08-.06-.14.04-.2-.08-.14-.22-.2-.3-.33.05-.03.1-.02.14.01l-.05-.08c.08-.03.06.04.1.06.1-.15-.2-.18-.13-.34l-.07-.01h.01c-.03.01-.08 0-.1-.02.06-.04.15-.05.13-.1.05-.07-.08-.13-.13-.18 0 .04-.04.04-.07.03-.01-.03.05-.07.01-.1l.1-.03c-.08.04-.12-.05-.16-.06.06-.04.07.03.13.02l-.07-.2c-.1-.05-.08.04-.17.03-.04-.05-.12-.1-.08-.18l-.07.04c-.1-.1-.1-.17-.04-.27-.44-.34-.68-.35-.8-.25-.13.1-.14.3-.14.3-.1.4.2.52.4.9.07.37-.05.52.14.87.05.18.15.36.23.52.15.04.1.22.22.28l-.05.06c.05.02.08.05.06.1v.01c.07.03.06.1.1.1h-.02l.03.06h-.03c.1.06.13.15.13.24l.08-.04c-.02.2.17.2.13.38v.01c.3.1-.01.36.28.46-.04-.01-.04.03-.06.04.06.08.12.16.27.1.03.06-.02.07-.08.1.07-.03.12.01.15.05h-.04l.1.13.1-.1c0 .1-.14.1-.08.15l.1-.05c.03.1-.1.25-.12.4.18.44.7.72.75 1.2l-.06.06c-.1.08.23 0 .14.07l.08.01c-.01.02-.02.06-.05.06.02.04.04.03.1.04l-.04.1c.05.2.28.23.36.4.01.3.4.55.65.68.38.13.32.8.78.9 0 .02.05.01.06 0l.28.23s.37.27.72.25c.16 0 .33-.07.3-.23-.02-.15-.1-.36-.2-.7v.01z"/></g></g></svg>